<svg viewBox="0 0 18 18" fill="none" xmlns="http://www.w3.org/2000/svg">
<path d="M17.125 3V1.75C17.125 1.41848 16.9933 1.10054 16.7589 0.866116C16.5245 0.631696 16.2065 0.5 15.875 0.5H2.125C1.79348 0.5 1.47554 0.631696 1.24112 0.866116C1.0067 1.10054 0.875 1.41848 0.875 1.75V3C0.875 3.33152 1.0067 3.64946 1.24112 3.88388C1.47554 4.1183 1.79348 4.25 2.125 4.25V11.75H1.5C1.33424 11.75 1.17527 11.8158 1.05806 11.9331C0.940848 12.0503 0.875 12.2092 0.875 12.375C0.875 12.5408 0.940848 12.6997 1.05806 12.8169C1.17527 12.9342 1.33424 13 1.5 13H8.375V14.3578C7.95799 14.5052 7.60653 14.7954 7.38273 15.1769C7.15893 15.5584 7.07721 16.0067 7.152 16.4426C7.2268 16.8786 7.45329 17.274 7.79146 17.5591C8.12963 17.8442 8.5577 18.0006 9 18.0006C9.4423 18.0006 9.87037 17.8442 10.2085 17.5591C10.5467 17.274 10.7732 16.8786 10.848 16.4426C10.9228 16.0067 10.8411 15.5584 10.6173 15.1769C10.3935 14.7954 10.042 14.5052 9.625 14.3578V13H16.5C16.6658 13 16.8247 12.9342 16.9419 12.8169C17.0592 12.6997 17.125 12.5408 17.125 12.375C17.125 12.2092 17.0592 12.0503 16.9419 11.9331C16.8247 11.8158 16.6658 11.75 16.5 11.75H15.875V4.25C16.2065 4.25 16.5245 4.1183 16.7589 3.88388C16.9933 3.64946 17.125 3.33152 17.125 3ZM7.125 9.25C7.125 9.41576 7.05915 9.57473 6.94194 9.69194C6.82473 9.80915 6.66576 9.875 6.5 9.875C6.33424 9.875 6.17527 9.80915 6.05806 9.69194C5.94085 9.57473 5.875 9.41576 5.875 9.25V8C5.875 7.83424 5.94085 7.67527 6.05806 7.55806C6.17527 7.44085 6.33424 7.375 6.5 7.375C6.66576 7.375 6.82473 7.44085 6.94194 7.55806C7.05915 7.67527 7.125 7.83424 7.125 8V9.25ZM9 16.75C8.87639 16.75 8.75555 16.7133 8.65277 16.6447C8.54999 16.576 8.46988 16.4784 8.42257 16.3642C8.37527 16.25 8.36289 16.1243 8.38701 16.0031C8.41112 15.8818 8.47065 15.7705 8.55806 15.6831C8.64547 15.5956 8.75683 15.5361 8.87807 15.512C8.99931 15.4879 9.12497 15.5003 9.23918 15.5476C9.35338 15.5949 9.45099 15.675 9.51967 15.7778C9.58834 15.8805 9.625 16.0014 9.625 16.125C9.625 16.2908 9.55915 16.4497 9.44194 16.5669C9.32473 16.6842 9.16576 16.75 9 16.75ZM9.625 9.25C9.625 9.41576 9.55915 9.57473 9.44194 9.69194C9.32473 9.80915 9.16576 9.875 9 9.875C8.83424 9.875 8.67527 9.80915 8.55806 9.69194C8.44085 9.57473 8.375 9.41576 8.375 9.25V7.375C8.375 7.20924 8.44085 7.05027 8.55806 6.93306C8.67527 6.81585 8.83424 6.75 9 6.75C9.16576 6.75 9.32473 6.81585 9.44194 6.93306C9.55915 7.05027 9.625 7.20924 9.625 7.375V9.25ZM12.125 9.25C12.125 9.41576 12.0592 9.57473 11.9419 9.69194C11.8247 9.80915 11.6658 9.875 11.5 9.875C11.3342 9.875 11.1753 9.80915 11.0581 9.69194C10.9408 9.57473 10.875 9.41576 10.875 9.25V6.75C10.875 6.58424 10.9408 6.42527 11.0581 6.30806C11.1753 6.19085 11.3342 6.125 11.5 6.125C11.6658 6.125 11.8247 6.19085 11.9419 6.30806C12.0592 6.42527 12.125 6.58424 12.125 6.75V9.25ZM2.125 3V1.75H15.875V3H2.125Z" fill="#1DF2C9"/>
<path d="M17.125 3V1.75C17.125 1.41848 16.9933 1.10054 16.7589 0.866116C16.5245 0.631696 16.2065 0.5 15.875 0.5H2.125C1.79348 0.5 1.47554 0.631696 1.24112 0.866116C1.0067 1.10054 0.875 1.41848 0.875 1.75V3C0.875 3.33152 1.0067 3.64946 1.24112 3.88388C1.47554 4.1183 1.79348 4.25 2.125 4.25V11.75H1.5C1.33424 11.75 1.17527 11.8158 1.05806 11.9331C0.940848 12.0503 0.875 12.2092 0.875 12.375C0.875 12.5408 0.940848 12.6997 1.05806 12.8169C1.17527 12.9342 1.33424 13 1.5 13H8.375V14.3578C7.95799 14.5052 7.60653 14.7954 7.38273 15.1769C7.15893 15.5584 7.07721 16.0067 7.152 16.4426C7.2268 16.8786 7.45329 17.274 7.79146 17.5591C8.12963 17.8442 8.5577 18.0006 9 18.0006C9.4423 18.0006 9.87037 17.8442 10.2085 17.5591C10.5467 17.274 10.7732 16.8786 10.848 16.4426C10.9228 16.0067 10.8411 15.5584 10.6173 15.1769C10.3935 14.7954 10.042 14.5052 9.625 14.3578V13H16.5C16.6658 13 16.8247 12.9342 16.9419 12.8169C17.0592 12.6997 17.125 12.5408 17.125 12.375C17.125 12.2092 17.0592 12.0503 16.9419 11.9331C16.8247 11.8158 16.6658 11.75 16.5 11.75H15.875V4.25C16.2065 4.25 16.5245 4.1183 16.7589 3.88388C16.9933 3.64946 17.125 3.33152 17.125 3ZM7.125 9.25C7.125 9.41576 7.05915 9.57473 6.94194 9.69194C6.82473 9.80915 6.66576 9.875 6.5 9.875C6.33424 9.875 6.17527 9.80915 6.05806 9.69194C5.94085 9.57473 5.875 9.41576 5.875 9.25V8C5.875 7.83424 5.94085 7.67527 6.05806 7.55806C6.17527 7.44085 6.33424 7.375 6.5 7.375C6.66576 7.375 6.82473 7.44085 6.94194 7.55806C7.05915 7.67527 7.125 7.83424 7.125 8V9.25ZM9 16.75C8.87639 16.75 8.75555 16.7133 8.65277 16.6447C8.54999 16.576 8.46988 16.4784 8.42257 16.3642C8.37527 16.25 8.36289 16.1243 8.38701 16.0031C8.41112 15.8818 8.47065 15.7705 8.55806 15.6831C8.64547 15.5956 8.75683 15.5361 8.87807 15.512C8.99931 15.4879 9.12497 15.5003 9.23918 15.5476C9.35338 15.5949 9.45099 15.675 9.51967 15.7778C9.58834 15.8805 9.625 16.0014 9.625 16.125C9.625 16.2908 9.55915 16.4497 9.44194 16.5669C9.32473 16.6842 9.16576 16.75 9 16.75ZM9.625 9.25C9.625 9.41576 9.55915 9.57473 9.44194 9.69194C9.32473 9.80915 9.16576 9.875 9 9.875C8.83424 9.875 8.67527 9.80915 8.55806 9.69194C8.44085 9.57473 8.375 9.41576 8.375 9.25V7.375C8.375 7.20924 8.44085 7.05027 8.55806 6.93306C8.67527 6.81585 8.83424 6.75 9 6.75C9.16576 6.75 9.32473 6.81585 9.44194 6.93306C9.55915 7.05027 9.625 7.20924 9.625 7.375V9.25ZM12.125 9.25C12.125 9.41576 12.0592 9.57473 11.9419 9.69194C11.8247 9.80915 11.6658 9.875 11.5 9.875C11.3342 9.875 11.1753 9.80915 11.0581 9.69194C10.9408 9.57473 10.875 9.41576 10.875 9.25V6.75C10.875 6.58424 10.9408 6.42527 11.0581 6.30806C11.1753 6.19085 11.3342 6.125 11.5 6.125C11.6658 6.125 11.8247 6.19085 11.9419 6.30806C12.0592 6.42527 12.125 6.58424 12.125 6.75V9.25ZM2.125 3V1.75H15.875V3H2.125Z" fill="url(#paint0_linear_7916_30704)"/>
<defs>
<linearGradient id="paint0_linear_7916_30704" x1="1.005" y1="-3.98042" x2="53.8478" y2="30.4168" gradientUnits="userSpaceOnUse">
<stop stop-color="#46FFDB"/>
<stop offset="1" stop-color="#8CD1FF"/>
</linearGradient>
</defs>
</svg>
