<svg viewBox="0 0 17 17" fill="none" xmlns="http://www.w3.org/2000/svg">
<path d="M6.95626 12.9334C6.60392 13.7037 5.42814 15.5006 2.12423 15.5006C1.95847 15.5006 1.7995 15.4347 1.68229 15.3175C1.56508 15.2003 1.49923 15.0413 1.49923 14.8756C1.49923 11.5717 3.2961 10.3959 4.06642 10.0436C4.14111 10.0095 4.22177 9.99047 4.30381 9.98759C4.38585 9.9847 4.46765 9.998 4.54455 10.0267C4.62145 10.0555 4.69194 10.099 4.75199 10.155C4.81204 10.211 4.86048 10.2782 4.89454 10.3529C4.9286 10.4276 4.94762 10.5083 4.95051 10.5903C4.95339 10.6724 4.94009 10.7542 4.91137 10.8311C4.88264 10.908 4.83904 10.9784 4.78308 11.0385C4.72711 11.0985 4.65986 11.147 4.58517 11.1811C4.08282 11.41 2.97423 12.1467 2.77892 14.2209C4.85314 14.0256 5.59142 12.917 5.81876 12.4146C5.85282 12.34 5.90126 12.2727 5.96131 12.2167C6.02136 12.1608 6.09185 12.1172 6.16875 12.0884C6.24565 12.0597 6.32745 12.0464 6.40949 12.0493C6.49153 12.0522 6.5722 12.0712 6.64689 12.1053C6.72158 12.1393 6.78882 12.1878 6.84479 12.2478C6.90076 12.3079 6.94436 12.3784 6.97308 12.4553C7.00181 12.5322 7.01511 12.614 7.01223 12.696C7.00934 12.778 6.99032 12.8587 6.95626 12.9334ZM16.4875 1.68339C16.469 1.37865 16.3396 1.09122 16.1237 0.875334C15.9078 0.659449 15.6204 0.530039 15.3156 0.511519C14.3328 0.452925 11.8211 0.542769 9.73751 2.62636L5.87423 6.49277C5.81621 6.55089 5.74731 6.59701 5.67147 6.62851C5.59563 6.66 5.51433 6.67625 5.4322 6.67632C5.26635 6.67647 5.10723 6.61072 4.98985 6.49355C4.87248 6.37638 4.80645 6.21738 4.8063 6.05152C4.80616 5.88567 4.8719 5.72655 4.98907 5.60918L7.06407 3.53339C7.10751 3.4897 7.13707 3.43413 7.14902 3.37369C7.16097 3.31324 7.15478 3.25061 7.13124 3.19367C7.10769 3.13673 7.06784 3.08802 7.01669 3.05366C6.96554 3.01931 6.90538 3.00084 6.84376 3.00058H4.80782C4.64317 2.99971 4.47998 3.03159 4.32775 3.09436C4.17553 3.15713 4.0373 3.24953 3.9211 3.36621L1.24142 6.04746C1.07708 6.21168 0.961763 6.41846 0.908408 6.64458C0.855054 6.8707 0.865774 7.10721 0.939364 7.32758C1.01296 7.54795 1.1465 7.74344 1.32502 7.89213C1.50354 8.04082 1.71997 8.13681 1.95001 8.16933L4.95548 8.58886L8.40939 12.0428L8.82892 15.0498C8.86118 15.2799 8.95715 15.4963 9.10597 15.6747C9.2548 15.853 9.45055 15.9862 9.67111 16.0592C9.79956 16.1021 9.93411 16.124 10.0695 16.124C10.2335 16.1243 10.396 16.0922 10.5475 16.0294C10.699 15.9667 10.8366 15.8746 10.9524 15.7584L13.6336 13.0787C13.7499 12.9623 13.8421 12.824 13.9049 12.6718C13.9676 12.5196 13.9997 12.3566 13.9992 12.192V10.156C13.9991 10.0943 13.9807 10.0339 13.9463 9.9826C13.9119 9.93128 13.8631 9.89131 13.806 9.86774C13.7489 9.84416 13.6861 9.83804 13.6255 9.85014C13.5649 9.86224 13.5093 9.89203 13.4656 9.93574L11.3899 12.0107C11.3291 12.0715 11.2566 12.1191 11.1766 12.1506C11.0967 12.182 11.0111 12.1967 10.9253 12.1936C10.8394 12.1905 10.7551 12.1698 10.6777 12.1327C10.6002 12.0956 10.5312 12.0429 10.475 11.9779C10.3725 11.8539 10.3204 11.6958 10.3291 11.5352C10.3378 11.3745 10.4066 11.223 10.5219 11.1107L14.3711 7.26152C16.4563 5.17714 16.5461 2.66543 16.4875 1.68183V1.68339Z" fill="#1DF2C9"/>
<path d="M6.95626 12.9334C6.60392 13.7037 5.42814 15.5006 2.12423 15.5006C1.95847 15.5006 1.7995 15.4347 1.68229 15.3175C1.56508 15.2003 1.49923 15.0413 1.49923 14.8756C1.49923 11.5717 3.2961 10.3959 4.06642 10.0436C4.14111 10.0095 4.22177 9.99047 4.30381 9.98759C4.38585 9.9847 4.46765 9.998 4.54455 10.0267C4.62145 10.0555 4.69194 10.099 4.75199 10.155C4.81204 10.211 4.86048 10.2782 4.89454 10.3529C4.9286 10.4276 4.94762 10.5083 4.95051 10.5903C4.95339 10.6724 4.94009 10.7542 4.91137 10.8311C4.88264 10.908 4.83904 10.9784 4.78308 11.0385C4.72711 11.0985 4.65986 11.147 4.58517 11.1811C4.08282 11.41 2.97423 12.1467 2.77892 14.2209C4.85314 14.0256 5.59142 12.917 5.81876 12.4146C5.85282 12.34 5.90126 12.2727 5.96131 12.2167C6.02136 12.1608 6.09185 12.1172 6.16875 12.0884C6.24565 12.0597 6.32745 12.0464 6.40949 12.0493C6.49153 12.0522 6.5722 12.0712 6.64689 12.1053C6.72158 12.1393 6.78882 12.1878 6.84479 12.2478C6.90076 12.3079 6.94436 12.3784 6.97308 12.4553C7.00181 12.5322 7.01511 12.614 7.01223 12.696C7.00934 12.778 6.99032 12.8587 6.95626 12.9334ZM16.4875 1.68339C16.469 1.37865 16.3396 1.09122 16.1237 0.875334C15.9078 0.659449 15.6204 0.530039 15.3156 0.511519C14.3328 0.452925 11.8211 0.542769 9.73751 2.62636L5.87423 6.49277C5.81621 6.55089 5.74731 6.59701 5.67147 6.62851C5.59563 6.66 5.51433 6.67625 5.4322 6.67632C5.26635 6.67647 5.10723 6.61072 4.98985 6.49355C4.87248 6.37638 4.80645 6.21738 4.8063 6.05152C4.80616 5.88567 4.8719 5.72655 4.98907 5.60918L7.06407 3.53339C7.10751 3.4897 7.13707 3.43413 7.14902 3.37369C7.16097 3.31324 7.15478 3.25061 7.13124 3.19367C7.10769 3.13673 7.06784 3.08802 7.01669 3.05366C6.96554 3.01931 6.90538 3.00084 6.84376 3.00058H4.80782C4.64317 2.99971 4.47998 3.03159 4.32775 3.09436C4.17553 3.15713 4.0373 3.24953 3.9211 3.36621L1.24142 6.04746C1.07708 6.21168 0.961763 6.41846 0.908408 6.64458C0.855054 6.8707 0.865774 7.10721 0.939364 7.32758C1.01296 7.54795 1.1465 7.74344 1.32502 7.89213C1.50354 8.04082 1.71997 8.13681 1.95001 8.16933L4.95548 8.58886L8.40939 12.0428L8.82892 15.0498C8.86118 15.2799 8.95715 15.4963 9.10597 15.6747C9.2548 15.853 9.45055 15.9862 9.67111 16.0592C9.79956 16.1021 9.93411 16.124 10.0695 16.124C10.2335 16.1243 10.396 16.0922 10.5475 16.0294C10.699 15.9667 10.8366 15.8746 10.9524 15.7584L13.6336 13.0787C13.7499 12.9623 13.8421 12.824 13.9049 12.6718C13.9676 12.5196 13.9997 12.3566 13.9992 12.192V10.156C13.9991 10.0943 13.9807 10.0339 13.9463 9.9826C13.9119 9.93128 13.8631 9.89131 13.806 9.86774C13.7489 9.84416 13.6861 9.83804 13.6255 9.85014C13.5649 9.86224 13.5093 9.89203 13.4656 9.93574L11.3899 12.0107C11.3291 12.0715 11.2566 12.1191 11.1766 12.1506C11.0967 12.182 11.0111 12.1967 10.9253 12.1936C10.8394 12.1905 10.7551 12.1698 10.6777 12.1327C10.6002 12.0956 10.5312 12.0429 10.475 11.9779C10.3725 11.8539 10.3204 11.6958 10.3291 11.5352C10.3378 11.3745 10.4066 11.223 10.5219 11.1107L14.3711 7.26152C16.4563 5.17714 16.5461 2.66543 16.4875 1.68183V1.68339Z" fill="url(#paint0_linear_7916_30683)"/>
<defs>
<linearGradient id="paint0_linear_7916_30683" x1="0.999996" y1="-3.49999" x2="49.5" y2="30.5" gradientUnits="userSpaceOnUse">
<stop stop-color="#46FFDB"/>
<stop offset="1" stop-color="#8CD1FF"/>
</linearGradient>
</defs>
</svg>
