<svg viewBox="0 0 16 16" fill="none" xmlns="http://www.w3.org/2000/svg">
<rect width="16" height="16" rx="8" fill="#294041"/>
<path d="M8.25717 3C5.78916 3 3.78844 4.99594 3.78844 7.45805C3.78844 8.74215 4.33265 9.89945 5.20353 10.7129L4.6915 12.9244C4.90409 12.9739 5.12564 13 5.35332 13C6.28798 13 7.1195 12.5595 7.65068 11.8752C7.84886 11.9022 8.05139 11.9161 8.25717 11.9161C10.6772 11.9161 12.6479 9.99708 12.7236 7.60122L8.25717 7.6012V7.59439C7.29864 7.59439 6.52161 6.8192 6.52161 5.86297C6.52161 4.90674 7.29864 4.13155 8.25717 4.13155C9.21569 4.13155 9.99273 4.90674 9.99273 5.86297C9.99273 6.15059 9.92243 6.42184 9.79803 6.66053C10.599 6.66053 11.037 6.37811 11.112 5.81328C11.317 6.37356 11.8312 6.65597 12.6546 6.66051C12.2777 4.57896 10.4523 3 8.25717 3Z" fill="#00D89A"/>
<mask id="mask0_6415_22981" style="mask-type:luminance" maskUnits="userSpaceOnUse" x="3" y="3" width="10" height="10">
<path d="M8.26303 3C5.79502 3 3.7943 4.99594 3.7943 7.45805C3.7943 8.74215 4.33851 9.89945 5.20939 10.7129L4.69736 12.9244C4.90995 12.9739 5.1315 13 5.35918 13C6.29384 13 7.12536 12.5595 7.65654 11.8752C7.85472 11.9022 8.05725 11.9161 8.26303 11.9161C10.683 11.9161 12.6537 9.99708 12.7295 7.60122L8.26303 7.6012V7.59439C7.3045 7.59439 6.52746 6.8192 6.52746 5.86297C6.52746 4.90674 7.3045 4.13155 8.26303 4.13155C9.22155 4.13155 9.99859 4.90674 9.99859 5.86297C9.99859 6.15059 9.92829 6.42184 9.80389 6.66053C10.6048 6.66053 11.0428 6.37811 11.1178 5.81328C11.3228 6.37356 11.8371 6.65597 12.6604 6.66051C12.2836 4.57896 10.4581 3 8.26303 3Z" fill="white"/>
</mask>
<g mask="url(#mask0_6415_22981)">
<path d="M6.58698 10.9131C4.06614 10.9131 2.02259 8.87446 2.02259 6.35964C2.02259 3.84482 4.06614 1.80615 6.58698 1.80615C9.10782 1.80615 11.1514 3.84482 11.1514 6.35964C11.1514 8.87446 9.10782 10.9131 6.58698 10.9131Z" fill="#00FFD6"/>
</g>
</svg>
