<svg width="12" height="14" viewBox="0 0 12 14" fill="none" xmlns="http://www.w3.org/2000/svg">
<path d="M10.4069 2.50563C9.6525 1.2125 8.62 0.5 7.5 0.5H4.5C3.38 0.5 2.3475 1.2125 1.59313 2.50563C0.888125 3.71375 0.5 5.3125 0.5 7C0.5 8.6875 0.888125 10.2863 1.59313 11.4944C2.3475 12.7875 3.38 13.5 4.5 13.5H7.5C8.62 13.5 9.6525 12.7875 10.4069 11.4944C11.1119 10.2863 11.5 8.6875 11.5 7C11.5 5.3125 11.1119 3.71375 10.4069 2.50563ZM10.4869 6.5H8.48687C8.44781 5.47398 8.24352 4.46097 7.88188 3.5H9.79375C10.1762 4.33625 10.4288 5.375 10.4869 6.5ZM9.19938 2.5H7.40375C7.19491 2.1377 6.94308 1.80194 6.65375 1.5H7.5C8.125 1.5 8.7125 1.875 9.19938 2.5ZM7.5 12.5H6.65563C6.94496 12.1981 7.19678 11.8623 7.40563 11.5H9.20125C8.7125 12.125 8.125 12.5 7.5 12.5ZM9.79375 10.5H7.8825C8.24415 9.53903 8.44844 8.52602 8.4875 7.5H10.4875C10.4288 8.625 10.1762 9.66375 9.79375 10.5Z" fill="white"/>
</svg>
