<svg viewBox="0 0 16 16" fill="none" xmlns="http://www.w3.org/2000/svg">
<g clip-path="url(#clip0_6415_23074)">
<path d="M8 16C12.4183 16 16 12.4183 16 8C16 3.58172 12.4183 0 8 0C3.58172 0 0 3.58172 0 8C0 12.4183 3.58172 16 8 16Z" fill="#6FBCF0"/>
<path fill-rule="evenodd" clip-rule="evenodd" d="M5.58154 10.9402C6.08607 11.8531 6.99263 12.4 8.00167 12.4C9.01072 12.4 9.91728 11.8531 10.4218 10.9402C10.9263 10.0273 10.9263 8.93761 10.4218 8.02472L8.29335 4.17579C8.16328 3.9414 7.84007 3.9414 7.71 4.17579L5.58154 8.02472C5.07308 8.93761 5.07308 10.0273 5.58154 10.9402ZM7.40255 6.00568L7.85584 5.18326C7.9189 5.06812 8.08445 5.06812 8.14751 5.18326L9.89363 8.34135C10.2129 8.92116 10.276 9.59143 10.0749 10.2082C10.0552 10.1096 10.0237 10.0068 9.98429 9.90395C9.74385 9.26658 9.19597 8.77724 8.36036 8.44827C7.78489 8.2221 7.41832 7.88491 7.27248 7.45314C7.08329 6.89389 7.28431 6.2853 7.40255 6.00568ZM6.62606 7.40379L6.10971 8.34135C5.71556 9.05686 5.71556 9.90806 6.10971 10.6236C6.50387 11.3391 7.21336 11.7626 8.00167 11.7626C8.5259 11.7626 9.01466 11.5735 9.40093 11.2404C9.45218 11.1088 9.6059 10.6277 9.41276 10.1301C9.23539 9.66956 8.8097 9.30359 8.14357 9.04041C7.39467 8.74434 6.90591 8.27967 6.69307 7.66286C6.66548 7.5765 6.64577 7.49015 6.62606 7.40379Z" fill="white"/>
</g>
<defs>
<clipPath id="clip0_6415_23074">
<rect width="16" height="16" fill="white"/>
</clipPath>
</defs>
</svg>
