<svg viewBox="0 0 598 183" fill="none" xmlns="http://www.w3.org/2000/svg">
<path d="M18.8086 82L47.3828 1.9707H65.2148L93.6816 82H78.0518L71.6602 62.8789H40.6152L34.0625 82H18.8086ZM44.5898 51.2236H67.793L64.0332 39.9443C62.8516 36.2562 61.6341 32.4069 60.3809 28.3965C59.1634 24.3861 57.8027 19.8564 56.2988 14.8076C54.7949 19.8564 53.4163 24.3861 52.1631 28.3965C50.9098 32.4069 49.6745 36.2562 48.457 39.9443L44.5898 51.2236ZM154.274 83.2891C146.898 83.2891 140.381 81.5882 134.723 78.1865C129.066 74.7848 124.626 69.9867 121.403 63.792C118.18 57.5973 116.569 50.3464 116.569 42.0391C116.569 33.6602 118.18 26.3734 121.403 20.1787C124.626 13.984 129.066 9.18587 134.723 5.78418C140.381 2.38249 146.898 0.681641 154.274 0.681641C160.29 0.681641 165.732 1.86328 170.602 4.22656C175.472 6.58984 179.482 9.91992 182.633 14.2168C185.82 18.5137 187.861 23.5804 188.756 29.417H174.308C173.234 24.3324 170.924 20.3936 167.379 17.6006C163.835 14.8076 159.502 13.4111 154.381 13.4111C149.512 13.4111 145.304 14.5928 141.759 16.9561C138.25 19.3193 135.547 22.6494 133.649 26.9463C131.787 31.2432 130.856 36.2741 130.856 42.0391C130.856 47.7682 131.787 52.7812 133.649 57.0781C135.547 61.3392 138.25 64.6514 141.759 67.0146C145.268 69.3779 149.476 70.5596 154.381 70.5596C159.466 70.5596 163.781 69.181 167.326 66.4238C170.871 63.6667 173.216 59.7458 174.362 54.6611H188.756C187.861 60.4977 185.82 65.5645 182.633 69.8613C179.482 74.1224 175.472 77.4346 170.602 79.7979C165.732 82.1253 160.29 83.2891 154.274 83.2891ZM220.476 83.2891C214.89 83.2891 210.002 82.0537 205.813 79.583C201.623 77.0765 198.347 73.6032 195.984 69.1631C193.656 64.723 192.493 59.5667 192.493 53.6943C192.493 47.8219 193.656 42.6657 195.984 38.2256C198.347 33.7497 201.623 30.2585 205.813 27.752C210.002 25.2454 214.89 23.9922 220.476 23.9922C226.026 23.9922 230.896 25.2454 235.085 27.752C239.311 30.2585 242.587 33.7497 244.914 38.2256C247.278 42.6657 248.459 47.8219 248.459 53.6943C248.459 59.5667 247.278 64.723 244.914 69.1631C242.587 73.6032 239.311 77.0765 235.085 79.583C230.896 82.0537 226.026 83.2891 220.476 83.2891ZM220.476 71.9561C224.809 71.9561 228.264 70.3268 230.842 67.0684C233.42 63.8099 234.709 59.3519 234.709 53.6943C234.709 48.0368 233.42 43.5609 230.842 40.2666C228.264 36.9723 224.809 35.3252 220.476 35.3252C216.107 35.3252 212.634 36.9723 210.056 40.2666C207.478 43.5251 206.189 48.001 206.189 53.6943C206.189 59.3519 207.478 63.8099 210.056 67.0684C212.634 70.3268 216.107 71.9561 220.476 71.9561ZM254.559 82V25.2812H267.664V35.1104C269.383 31.458 271.764 28.7188 274.808 26.8926C277.851 25.0664 281.164 24.1533 284.744 24.1533C288.576 24.1533 291.959 25.138 294.896 27.1074C297.832 29.041 299.891 31.637 301.072 34.8955C302.576 31.637 304.922 29.041 308.109 27.1074C311.295 25.138 314.966 24.1533 319.119 24.1533C324.49 24.1533 329.002 25.89 332.654 29.3633C336.307 32.8366 338.133 37.9033 338.133 44.5635V82H324.544V46.4971C324.544 42.7373 323.506 39.998 321.429 38.2793C319.388 36.5247 316.917 35.6475 314.017 35.6475C310.579 35.6475 307.858 36.7217 305.853 38.8701C303.883 41.0186 302.899 43.7936 302.899 47.1953V82H289.739V45.8525C289.739 42.7731 288.773 40.3024 286.839 38.4404C284.905 36.5785 282.435 35.6475 279.427 35.6475C276.383 35.6475 273.734 36.7217 271.478 38.8701C269.222 40.9827 268.094 44.0801 268.094 48.1621V82H254.559ZM346.864 104.451V25.2812H360.185V33.1768H360.346C362.136 30.1689 364.535 27.9131 367.543 26.4092C370.551 24.9053 373.881 24.1533 377.533 24.1533C382.403 24.1533 386.664 25.4066 390.316 27.9131C394.005 30.3838 396.869 33.8392 398.91 38.2793C400.987 42.6836 402.025 47.7861 402.025 53.5869C402.025 59.4951 401.005 64.6693 398.964 69.1094C396.959 73.5137 394.112 76.9512 390.424 79.4219C386.736 81.8926 382.421 83.1279 377.479 83.1279C373.756 83.1279 370.443 82.3223 367.543 80.7109C364.678 79.0996 362.351 76.6826 360.561 73.46H360.399V104.451H346.864ZM374.311 71.7949C378.5 71.7949 381.884 70.2373 384.462 67.1221C387.04 63.971 388.329 59.4593 388.329 53.5869C388.329 47.7503 387.04 43.2565 384.462 40.1055C381.884 36.9544 378.5 35.3789 374.311 35.3789C369.87 35.3789 366.308 37.0439 363.622 40.374C360.972 43.6683 359.647 48.0726 359.647 53.5869C359.647 59.1012 360.972 63.5234 363.622 66.8535C366.308 70.1478 369.87 71.7949 374.311 71.7949ZM421.66 1.9707V82H408.125V1.9707H421.66ZM455.421 83.2891C449.763 83.2891 444.857 82.0179 440.704 79.4756C436.55 76.9333 433.345 73.4421 431.089 69.002C428.869 64.526 427.759 59.4235 427.759 53.6943C427.759 47.9294 428.905 42.8268 431.197 38.3867C433.524 33.9108 436.729 30.4017 440.811 27.8594C444.893 25.2812 449.584 23.9922 454.883 23.9922C460.326 23.9922 465.088 25.2454 469.171 27.752C473.253 30.2585 476.421 33.7318 478.677 38.1719C480.933 42.5762 482.061 47.6787 482.061 53.4795V57.1855H441.026C441.205 61.8047 442.566 65.5286 445.108 68.3574C447.65 71.1862 451.195 72.6006 455.743 72.6006C459.144 72.6006 461.955 71.8665 464.175 70.3984C466.395 68.8945 467.899 66.9251 468.687 64.4902H481.363C480.647 68.1784 479.071 71.4368 476.636 74.2656C474.237 77.0944 471.212 79.3145 467.559 80.9258C463.907 82.5013 459.861 83.2891 455.421 83.2891ZM441.133 47.8398H469.063C468.633 43.7936 467.165 40.6068 464.659 38.2793C462.188 35.916 459.001 34.7344 455.098 34.7344C451.159 34.7344 447.955 35.916 445.484 38.2793C443.049 40.6068 441.599 43.7936 441.133 47.8398ZM517.916 25.2812V36.1846H506.369V65.7256C506.369 67.7666 506.78 69.181 507.604 69.9688C508.427 70.7207 509.931 71.0967 512.116 71.0967H517.916V82H509.752C503.987 82 499.708 80.8363 496.915 78.5088C494.158 76.1813 492.78 72.5827 492.78 67.7129V36.1846H482.897V25.2812H492.78V9.8125H506.369V25.2812H517.916ZM547.326 83.2891C541.669 83.2891 536.763 82.0179 532.61 79.4756C528.456 76.9333 525.251 73.4421 522.995 69.002C520.775 64.526 519.665 59.4235 519.665 53.6943C519.665 47.9294 520.811 42.8268 523.103 38.3867C525.43 33.9108 528.635 30.4017 532.717 27.8594C536.799 25.2812 541.49 23.9922 546.789 23.9922C552.232 23.9922 556.994 25.2454 561.076 27.752C565.158 30.2585 568.327 33.7318 570.583 38.1719C572.839 42.5762 573.967 47.6787 573.967 53.4795V57.1855H532.932C533.111 61.8047 534.472 65.5286 537.014 68.3574C539.556 71.1862 543.101 72.6006 547.649 72.6006C551.05 72.6006 553.861 71.8665 556.081 70.3984C558.301 68.8945 559.805 66.9251 560.593 64.4902H573.269C572.553 68.1784 570.977 71.4368 568.542 74.2656C566.143 77.0944 563.117 79.3145 559.465 80.9258C555.813 82.5013 551.766 83.2891 547.326 83.2891ZM533.039 47.8398H560.969C560.539 43.7936 559.071 40.6068 556.565 38.2793C554.094 35.916 550.907 34.7344 547.004 34.7344C543.065 34.7344 539.861 35.916 537.39 38.2793C534.955 40.6068 533.505 43.7936 533.039 47.8398ZM27.4947 181H0.478119V100.971H28.0855C36.0348 100.971 42.8919 102.6 48.6568 105.858C54.4218 109.081 58.8619 113.682 61.9771 119.662C65.0924 125.606 66.65 132.678 66.65 140.878C66.65 149.149 65.0924 156.293 61.9771 162.309C58.8619 168.288 54.3681 172.908 48.4957 176.166C42.6591 179.389 35.6588 181 27.4947 181ZM14.6578 168.861H26.7428C35.4439 168.861 41.8713 166.426 46.025 161.557C50.2144 156.651 52.3092 149.758 52.3092 140.878C52.3092 132.069 50.2324 125.248 46.0787 120.414C41.9251 115.544 35.623 113.109 27.1725 113.109H14.6578V168.861ZM98.2621 182.289C92.6045 182.289 87.6989 181.018 83.5453 178.476C79.3917 175.933 76.1869 172.442 73.931 168.002C71.711 163.526 70.601 158.424 70.601 152.694C70.601 146.929 71.7468 141.827 74.0385 137.387C76.3659 132.911 79.5707 129.402 83.6527 126.859C87.7348 124.281 92.4255 122.992 97.725 122.992C103.168 122.992 107.93 124.245 112.012 126.752C116.094 129.258 119.263 132.732 121.519 137.172C123.775 141.576 124.903 146.679 124.903 152.479V156.186H83.8676C84.0466 160.805 85.4073 164.529 87.9496 167.357C90.4919 170.186 94.0368 171.601 98.5844 171.601C101.986 171.601 104.797 170.867 107.017 169.398C109.237 167.895 110.741 165.925 111.529 163.49H124.204C123.488 167.178 121.913 170.437 119.478 173.266C117.079 176.094 114.053 178.314 110.401 179.926C106.748 181.501 102.702 182.289 98.2621 182.289ZM83.975 146.84H111.905C111.475 142.794 110.007 139.607 107.5 137.279C105.03 134.916 101.843 133.734 97.9398 133.734C94.001 133.734 90.7963 134.916 88.3256 137.279C85.8907 139.607 84.4405 142.794 83.975 146.84ZM131.486 181V100.971H185.304V113.271H145.665V135.131H182.457V147.162H145.665V181H131.486ZM190.49 181V124.281H204.025V181H190.49ZM197.258 115.849C194.93 115.849 192.997 115.115 191.457 113.646C189.917 112.143 189.147 110.299 189.147 108.114C189.147 105.93 189.917 104.104 191.457 102.636C192.997 101.168 194.93 100.434 197.258 100.434C199.549 100.434 201.465 101.168 203.005 102.636C204.545 104.104 205.314 105.93 205.314 108.114C205.314 110.299 204.545 112.143 203.005 113.646C201.465 115.115 199.549 115.849 197.258 115.849ZM230.834 113.271V100.971H294.803V113.271H269.989V181H255.755V113.271H230.834ZM312.075 182.289C306.489 182.289 301.601 181.054 297.412 178.583C293.222 176.076 289.946 172.603 287.582 168.163C285.255 163.723 284.091 158.567 284.091 152.694C284.091 146.822 285.255 141.666 287.582 137.226C289.946 132.75 293.222 129.258 297.412 126.752C301.601 124.245 306.489 122.992 312.075 122.992C317.625 122.992 322.495 124.245 326.684 126.752C330.909 129.258 334.186 132.75 336.513 137.226C338.876 141.666 340.058 146.822 340.058 152.694C340.058 158.567 338.876 163.723 336.513 168.163C334.186 172.603 330.909 176.076 326.684 178.583C322.495 181.054 317.625 182.289 312.075 182.289ZM312.075 170.956C316.407 170.956 319.863 169.327 322.441 166.068C325.019 162.81 326.308 158.352 326.308 152.694C326.308 147.037 325.019 142.561 322.441 139.267C319.863 135.972 316.407 134.325 312.075 134.325C307.706 134.325 304.233 135.972 301.655 139.267C299.077 142.525 297.788 147.001 297.788 152.694C297.788 158.352 299.077 162.81 301.655 166.068C304.233 169.327 307.706 170.956 312.075 170.956ZM371.509 182.289C365.923 182.289 361.035 181.054 356.846 178.583C352.656 176.076 349.38 172.603 347.017 168.163C344.689 163.723 343.526 158.567 343.526 152.694C343.526 146.822 344.689 141.666 347.017 137.226C349.38 132.75 352.656 129.258 356.846 126.752C361.035 124.245 365.923 122.992 371.509 122.992C377.059 122.992 381.929 124.245 386.118 126.752C390.344 129.258 393.62 132.75 395.947 137.226C398.311 141.666 399.492 146.822 399.492 152.694C399.492 158.567 398.311 163.723 395.947 168.163C393.62 172.603 390.344 176.076 386.118 178.583C381.929 181.054 377.059 182.289 371.509 182.289ZM371.509 170.956C375.842 170.956 379.297 169.327 381.875 166.068C384.453 162.81 385.742 158.352 385.742 152.694C385.742 147.037 384.453 142.561 381.875 139.267C379.297 135.972 375.842 134.325 371.509 134.325C367.14 134.325 363.667 135.972 361.089 139.267C358.511 142.525 357.222 147.001 357.222 152.694C357.222 158.352 358.511 162.81 361.089 166.068C363.667 169.327 367.14 170.956 371.509 170.956ZM419.127 100.971V181H405.592V100.971H419.127ZM458.473 182.128C454.749 182.128 451.384 181.322 448.376 179.711C445.404 178.1 443.04 175.647 441.286 172.353H441.178V181H427.858V100.971H441.393V132.338H441.501C443.327 129.223 445.708 126.913 448.644 125.409C451.581 123.905 454.875 123.153 458.527 123.153C463.397 123.153 467.658 124.407 471.31 126.913C474.998 129.384 477.863 132.839 479.904 137.279C481.981 141.684 483.019 146.786 483.019 152.587C483.019 158.495 481.999 163.669 479.958 168.109C477.953 172.514 475.106 175.951 471.418 178.422C467.73 180.893 463.415 182.128 458.473 182.128ZM455.304 170.795C459.494 170.795 462.878 169.237 465.456 166.122C468.034 162.971 469.323 158.459 469.323 152.587C469.323 146.75 468.034 142.257 465.456 139.105C462.878 135.954 459.494 134.379 455.304 134.379C450.864 134.379 447.302 136.044 444.616 139.374C441.966 142.668 440.641 147.073 440.641 152.587C440.641 158.101 441.966 162.523 444.616 165.854C447.302 169.148 450.864 170.795 455.304 170.795ZM514.47 182.289C508.884 182.289 503.997 181.054 499.807 178.583C495.618 176.076 492.341 172.603 489.978 168.163C487.651 163.723 486.487 158.567 486.487 152.694C486.487 146.822 487.651 141.666 489.978 137.226C492.341 132.75 495.618 129.258 499.807 126.752C503.997 124.245 508.884 122.992 514.47 122.992C520.02 122.992 524.89 124.245 529.08 126.752C533.305 129.258 536.581 132.75 538.909 137.226C541.272 141.666 542.454 146.822 542.454 152.694C542.454 158.567 541.272 163.723 538.909 168.163C536.581 172.603 533.305 176.076 529.08 178.583C524.89 181.054 520.02 182.289 514.47 182.289ZM514.47 170.956C518.803 170.956 522.258 169.327 524.837 166.068C527.415 162.81 528.704 158.352 528.704 152.694C528.704 147.037 527.415 142.561 524.837 139.267C522.258 135.972 518.803 134.325 514.47 134.325C510.102 134.325 506.629 135.972 504.05 139.267C501.472 142.525 500.183 147.001 500.183 152.694C500.183 158.352 501.472 162.81 504.05 166.068C506.629 169.327 510.102 170.956 514.47 170.956ZM541.141 181L561.712 152.104L542.484 124.281H557.577L563.485 133.305C564.523 134.952 565.526 136.581 566.493 138.192C567.459 139.768 568.426 141.343 569.393 142.919C570.36 141.343 571.327 139.768 572.293 138.192C573.296 136.581 574.316 134.952 575.355 133.305L581.37 124.281H596.248L576.859 151.835L597.161 181H582.015L575.247 170.902C574.209 169.219 573.189 167.59 572.186 166.015C571.183 164.439 570.199 162.864 569.232 161.288C568.229 162.864 567.227 164.439 566.224 166.015C565.221 167.59 564.183 169.219 563.109 170.902L556.234 181H541.141Z" fill="#00383A"/>
</svg>
