<svg viewBox="0 0 22 22" fill="none" xmlns="http://www.w3.org/2000/svg">
<path d="M20.75 10.25H19.9681C19.8804 9.18048 19.6003 8.13559 19.1413 7.16562L19.8191 6.77469C19.9914 6.67523 20.1171 6.5114 20.1686 6.31923C20.2201 6.12707 20.1932 5.92231 20.0938 5.75C19.9943 5.57769 19.8305 5.45195 19.6383 5.40044C19.4461 5.34892 19.2414 5.37586 19.0691 5.47531L18.3894 5.86812C17.7759 4.98839 17.0116 4.22411 16.1319 3.61063L16.5247 2.93094C16.6241 2.75863 16.6511 2.55387 16.5996 2.3617C16.548 2.16954 16.4223 2.00571 16.25 1.90625C16.0777 1.80679 15.8729 1.77986 15.6808 1.83137C15.4886 1.88289 15.3248 2.00863 15.2253 2.18094L14.8344 2.85875C13.8644 2.39969 12.8195 2.11957 11.75 2.03188V1.25C11.75 1.05109 11.671 0.860322 11.5303 0.71967C11.3897 0.579018 11.1989 0.5 11 0.5C10.8011 0.5 10.6103 0.579018 10.4697 0.71967C10.329 0.860322 10.25 1.05109 10.25 1.25V2.03188C9.18048 2.11957 8.13559 2.39969 7.16562 2.85875L6.77469 2.18094C6.67523 2.00863 6.5114 1.88289 6.31923 1.83137C6.12707 1.77986 5.92231 1.80679 5.75 1.90625C5.57769 2.00571 5.45195 2.16954 5.40044 2.3617C5.34892 2.55387 5.37586 2.75863 5.47531 2.93094L5.86812 3.61063C4.98839 4.22411 4.22411 4.98839 3.61063 5.86812L2.93094 5.47531C2.84562 5.42607 2.75144 5.39411 2.65377 5.38126C2.5561 5.36841 2.45686 5.37493 2.3617 5.40044C2.16954 5.45195 2.00571 5.57769 1.90625 5.75C1.80679 5.92231 1.77986 6.12707 1.83137 6.31923C1.88289 6.5114 2.00863 6.67523 2.18094 6.77469L2.85875 7.16562C2.39969 8.13559 2.11957 9.18048 2.03188 10.25H1.25C1.05109 10.25 0.860322 10.329 0.71967 10.4697C0.579018 10.6103 0.5 10.8011 0.5 11C0.5 11.1989 0.579018 11.3897 0.71967 11.5303C0.860322 11.671 1.05109 11.75 1.25 11.75H2.03188C2.11957 12.8195 2.39969 13.8644 2.85875 14.8344L2.18094 15.2253C2.03787 15.3078 1.92604 15.4353 1.8628 15.5878C1.79957 15.7404 1.78846 15.9096 1.8312 16.0691C1.87394 16.2286 1.96814 16.3696 2.09918 16.4701C2.23023 16.5706 2.39078 16.6251 2.55594 16.625C2.68762 16.6254 2.81704 16.5908 2.93094 16.5247L3.61063 16.1319C4.22411 17.0116 4.98839 17.7759 5.86812 18.3894L5.47531 19.0691C5.37586 19.2414 5.34892 19.4461 5.40044 19.6383C5.45195 19.8305 5.57769 19.9943 5.75 20.0938C5.92231 20.1932 6.12707 20.2201 6.31923 20.1686C6.5114 20.1171 6.67523 19.9914 6.77469 19.8191L7.16562 19.1413C8.13559 19.6003 9.18048 19.8804 10.25 19.9681V20.75C10.25 20.9489 10.329 21.1397 10.4697 21.2803C10.6103 21.421 10.8011 21.5 11 21.5C11.1989 21.5 11.3897 21.421 11.5303 21.2803C11.671 21.1397 11.75 20.9489 11.75 20.75V19.9681C12.8195 19.8804 13.8644 19.6003 14.8344 19.1413L15.2253 19.8191C15.3248 19.9914 15.4886 20.1171 15.6808 20.1686C15.8729 20.2201 16.0777 20.1932 16.25 20.0938C16.4223 19.9943 16.548 19.8305 16.5996 19.6383C16.6511 19.4461 16.6241 19.2414 16.5247 19.0691L16.1319 18.3894C17.0116 17.7759 17.7759 17.0116 18.3894 16.1319L19.0691 16.5247C19.1544 16.574 19.2486 16.6059 19.3462 16.6188C19.4439 16.6316 19.5432 16.6251 19.6383 16.5996C19.7335 16.5741 19.8227 16.5301 19.9008 16.4701C19.979 16.4101 20.0445 16.3353 20.0938 16.25C20.1933 16.0778 20.2204 15.8731 20.1691 15.681C20.1177 15.4888 19.9922 15.3249 19.82 15.2253L19.1422 14.8344C19.6012 13.8644 19.8814 12.8195 19.9691 11.75H20.75C20.9489 11.75 21.1397 11.671 21.2803 11.5303C21.421 11.3897 21.5 11.1989 21.5 11C21.5 10.8011 21.421 10.6103 21.2803 10.4697C21.1397 10.329 20.9489 10.25 20.75 10.25ZM5.75 11C5.74961 10.2055 5.92985 9.42127 6.27709 8.70665C6.62434 7.99203 7.12949 7.36569 7.75437 6.875L10.1337 11L7.75437 15.125C7.12949 14.6343 6.62434 14.008 6.27709 13.2934C5.92985 12.5787 5.74961 11.7945 5.75 11ZM11 16.25C10.3326 16.2507 9.6713 16.1234 9.05188 15.875L11.4331 11.75H16.1956C16.0136 12.9987 15.3887 14.1403 14.4348 14.9664C13.481 15.7925 12.2619 16.2481 11 16.25ZM11.4331 10.25L9.05188 6.125C9.78934 5.83039 10.584 5.70692 11.3761 5.76389C12.1682 5.82085 12.9371 6.05677 13.6248 6.45388C14.3125 6.85099 14.9012 7.39894 15.3465 8.05648C15.7918 8.71402 16.0821 9.46402 16.1956 10.25H11.4331Z" fill="white"/>
</svg>
