<svg viewBox="0 0 133 32" fill="none" xmlns="http://www.w3.org/2000/svg">
<g clip-path="url(#clip0_6732_39860)">
<path d="M14.3038 0C6.40541 0 0.00251961 6.387 0.00251961 14.2658C0.00251961 18.3749 1.74415 22.0782 4.53123 24.6814L2.89258 31.7582C3.57293 31.9164 4.28197 32 5.01061 32C8.00179 32 10.6629 30.5904 12.3628 28.4008C12.9971 28.4871 13.6452 28.5315 14.3038 28.5315C22.0485 28.5315 28.3553 22.3906 28.5978 14.7239L14.3038 14.7238V14.702C11.2362 14.702 8.74946 12.2215 8.74946 9.1615C8.74946 6.10155 11.2362 3.62098 14.3038 3.62098C17.3713 3.62098 19.8581 6.10155 19.8581 9.1615C19.8581 10.0819 19.6331 10.9499 19.235 11.7137C21.7983 11.7137 23.1999 10.81 23.4399 9.00251C24.0961 10.7954 25.7417 11.6991 28.3768 11.7136C27.1708 5.05266 21.3288 0 14.3038 0Z" fill="#00D89A"/>
<mask id="mask0_6732_39860" style="mask-type:luminance" maskUnits="userSpaceOnUse" x="0" y="0" width="29" height="32">
<path d="M14.3051 0C6.40675 0 0.00386238 6.387 0.00386238 14.2658C0.00386238 18.3749 1.74549 22.0782 4.53258 24.6814L2.89393 31.7582C3.57427 31.9164 4.28332 32 5.01195 32C8.00313 32 10.6643 30.5904 12.3642 28.4008C12.9984 28.4871 13.6466 28.5315 14.3051 28.5315C22.0498 28.5315 28.3566 22.3906 28.5991 14.7239L14.3051 14.7238V14.702C11.2376 14.702 8.7508 12.2215 8.7508 9.1615C8.7508 6.10155 11.2376 3.62098 14.3051 3.62098C17.3727 3.62098 19.8594 6.10155 19.8594 9.1615C19.8594 10.0819 19.6344 10.9499 19.2363 11.7137C21.7996 11.7137 23.2013 10.81 23.4413 9.00251C24.0974 10.7954 25.743 11.6991 28.3781 11.7136C27.1721 5.05266 21.3301 0 14.3051 0Z" fill="white"/>
</mask>
<g mask="url(#mask0_6732_39860)">
<path d="M8.94681 25.3252C0.879374 25.3252 -5.66058 18.8014 -5.66058 10.754C-5.66058 2.70659 0.879374 -3.81714 8.94681 -3.81714C17.0142 -3.81714 23.5542 2.70659 23.5542 10.754C23.5542 18.8014 17.0142 25.3252 8.94681 25.3252Z" fill="#00FFD6"/>
</g>
<path d="M54.0446 21.9959L51.997 19.5417H41.7917C41.4342 19.5417 41.0983 19.4708 40.7841 19.329C40.47 19.1872 40.1964 18.9936 39.9635 18.7482C39.7305 18.5027 39.5464 18.2219 39.411 17.9056C39.2949 17.6345 39.2286 17.3475 39.212 17.0445C39.2092 16.9938 39.2078 15.5584 39.2078 15.5069C39.2078 15.4977 39.2114 14.0662 39.2181 14.0111C39.2434 13.8033 39.313 13.3475 39.4028 13.1327C39.5328 12.8219 39.7062 12.5464 39.9228 12.3065C40.1395 12.0665 40.3995 11.8702 40.7029 11.7175C41.0062 11.5648 41.3258 11.4829 41.6617 11.472H54.0446L51.997 9.01782H41.1416C40.5025 9.06145 39.9039 9.22779 39.346 9.51685C38.788 9.8059 38.3005 10.1822 37.8834 10.6458C37.4663 11.1094 37.1386 11.6411 36.9002 12.241C36.6767 12.8036 36.558 13.4005 36.5441 14.0111C36.5432 14.0515 36.5427 15.4662 36.5427 15.5069C36.5427 15.5499 36.5432 16.9771 36.5443 17.0199C36.5594 17.6389 36.6834 18.2341 36.9165 18.8054C37.1657 19.4163 37.5069 19.9562 37.9403 20.4252C38.3736 20.8942 38.8828 21.2678 39.4678 21.546C40.0529 21.8241 40.6758 21.9741 41.3366 21.9959H54.0446Z" fill="white"/>
<path d="M73.5204 22.014L71.4728 19.8052H58.6961V16.5304H71.4728V14.3216H58.6961V11.1924H73.5204L71.4728 9H56.031V22.014H73.5204Z" fill="white"/>
<path d="M83.0226 22.0094V11.1924H77.3273L75.5073 9H91.1728L93.0092 11.1924H85.704V22.0094H83.0226Z" fill="white"/>
<path d="M107.703 21.9965C108.375 21.9746 109.001 21.8247 109.58 21.5465C110.16 21.2684 110.666 20.8948 111.1 20.4258C111.533 19.9567 111.874 19.4168 112.123 18.806C112.373 18.1951 112.497 17.5516 112.497 16.8753V9.01636H109.865V17.1371C109.865 17.4971 109.797 17.8325 109.661 18.1433C109.526 18.4542 109.342 18.7214 109.109 18.945C108.876 19.1686 108.602 19.3459 108.288 19.4768C107.974 19.6077 107.638 19.6731 107.281 19.6731H100.228C99.8704 19.6731 99.5346 19.6077 99.2204 19.4768C98.9062 19.3459 98.6327 19.1686 98.3997 18.945C98.1668 18.7214 97.9826 18.4542 97.8472 18.1433C97.7118 17.8325 97.6441 17.4971 97.6441 17.1371V9H94.9952V16.8753C94.9952 17.5516 95.1198 18.1951 95.369 18.806C95.6182 19.4168 95.9594 19.9567 96.3928 20.4258C96.8261 20.8948 97.3353 21.2684 97.9203 21.5465C98.5054 21.8247 99.1283 21.9746 99.7892 21.9965H107.703Z" fill="white"/>
<path d="M128.686 22.0031C129.109 21.9703 129.52 21.864 129.921 21.684C130.322 21.504 130.677 21.2695 130.986 20.9805C131.295 20.6914 131.541 20.356 131.725 19.9742C131.881 19.6504 131.971 19.325 131.995 18.9707C131.999 18.9074 132.001 17.9219 132.001 17.8557C132.001 17.7826 131.999 17.1324 131.995 17.0593C131.972 16.6856 131.89 16.301 131.75 15.9863C131.582 15.61 131.354 15.2854 131.067 15.0128C130.78 14.7401 130.444 14.5274 130.059 14.3747C129.675 14.222 129.26 14.1401 128.816 14.1292H117.847C117.641 14.1292 117.465 14.0665 117.319 13.9411C117.202 13.8407 117.132 13.7905 117.108 13.6378C117.103 13.5997 117.1 12.8799 117.1 12.8385C117.1 12.7948 117.103 12.1307 117.109 12.0904C117.132 11.9396 117.2 11.7866 117.311 11.6833C117.452 11.5524 117.62 11.4815 117.815 11.4706H131.026L128.979 9H117.538C117.116 9.02182 116.718 9.12271 116.344 9.30269C115.97 9.48266 115.645 9.7199 115.369 10.0144C115.093 10.3089 114.876 10.6498 114.719 11.037C114.581 11.3778 114.503 11.7116 114.487 12.0904C114.484 12.142 114.483 12.7862 114.483 12.8385C114.483 12.9028 114.485 13.5752 114.488 13.6378C114.508 14.0002 114.585 14.4113 114.719 14.7183C114.876 15.0782 115.09 15.3945 115.361 15.6672C115.632 15.9399 115.951 16.1553 116.32 16.3135C116.688 16.4717 117.083 16.5671 117.506 16.5998H128.686C128.881 16.6107 129.049 16.6816 129.19 16.8125C129.28 16.8965 129.342 16.9605 129.374 17.0593C129.392 17.1146 129.401 17.7853 129.401 17.8557C129.401 17.913 129.396 18.9143 129.385 18.9707C129.355 19.1184 129.288 19.2457 129.182 19.3443C129.036 19.4807 128.86 19.5488 128.654 19.5488H114.532L116.733 22.0031H128.686Z" fill="white"/>
</g>
<defs>
<clipPath id="clip0_6732_39860">
<rect width="132.16" height="32" fill="white"/>
</clipPath>
</defs>
</svg>
