<svg viewBox="0 0 13 12" xmlns="http://www.w3.org/2000/svg">
<path d="M6.57812 11.3828L5.4375 10.2422L7.38281 8.30469C7.64844 8.03906 7.92708 7.77083 8.21875 7.5C8.51042 7.22396 8.79948 6.95312 9.08594 6.6875C8.85156 6.70312 8.61198 6.71615 8.36719 6.72656C8.1276 6.73177 7.89323 6.73438 7.66406 6.73438H0.367188V5.07812H7.66406C7.89323 5.07812 8.1276 5.08333 8.36719 5.09375C8.61198 5.09896 8.84896 5.10938 9.07812 5.125C8.79167 4.85938 8.5026 4.59115 8.21094 4.32031C7.92448 4.04948 7.64844 3.78125 7.38281 3.51562L5.4375 1.57812L6.57812 0.429688L12.0547 5.90625L6.57812 11.3828Z"/>
</svg>
