<svg viewBox="0 0 510 424" fill="none" xmlns="http://www.w3.org/2000/svg">
<g style="mix-blend-mode:color-dodge" opacity="0.7">
<mask id="mask0_7601_11340" style="mask-type:alpha" maskUnits="userSpaceOnUse" x="-930" y="0" width="1440" height="424">
<line x1="5.5" y1="-2.18557e-08" x2="5.50002" y2="424" stroke="white"/>
<line x1="15.5" y1="-2.18557e-08" x2="15.5" y2="424" stroke="white"/>
<line x1="25.5" y1="-2.18557e-08" x2="25.5" y2="424" stroke="white"/>
<line x1="35.5" y1="-2.18557e-08" x2="35.5" y2="424" stroke="white"/>
<line x1="45.5" y1="-2.18557e-08" x2="45.5" y2="424" stroke="white"/>
<line x1="55.5" y1="-2.18557e-08" x2="55.5" y2="424" stroke="white"/>
<line x1="65.5" y1="-2.18557e-08" x2="65.5" y2="424" stroke="white"/>
<line x1="75.5" y1="-2.18557e-08" x2="75.5" y2="424" stroke="white"/>
<line x1="85.5" y1="-2.18557e-08" x2="85.5" y2="424" stroke="white"/>
<line x1="95.5" y1="-2.18557e-08" x2="95.5" y2="424" stroke="white"/>
<line x1="105.5" y1="-2.18557e-08" x2="105.5" y2="424" stroke="white"/>
<line x1="115.5" y1="-2.18557e-08" x2="115.5" y2="424" stroke="white"/>
<line x1="125.5" y1="-2.18557e-08" x2="125.5" y2="424" stroke="white"/>
<line x1="135.5" y1="-2.18557e-08" x2="135.5" y2="424" stroke="white"/>
<line x1="145.5" y1="-2.18557e-08" x2="145.5" y2="424" stroke="white"/>
<line x1="155.5" y1="-2.18557e-08" x2="155.5" y2="424" stroke="white"/>
<line x1="165.5" y1="-2.18557e-08" x2="165.5" y2="424" stroke="white"/>
<line x1="175.5" y1="-2.18557e-08" x2="175.5" y2="424" stroke="white"/>
<line x1="185.5" y1="-2.18557e-08" x2="185.5" y2="424" stroke="white"/>
<line x1="195.5" y1="-2.18557e-08" x2="195.5" y2="424" stroke="white"/>
<line x1="205.5" y1="-2.18557e-08" x2="205.5" y2="424" stroke="white"/>
<line x1="215.5" y1="-2.18557e-08" x2="215.5" y2="424" stroke="white"/>
<line x1="225.5" y1="-2.18557e-08" x2="225.5" y2="424" stroke="white"/>
<line x1="235.5" y1="-2.18557e-08" x2="235.5" y2="424" stroke="white"/>
<line x1="245.5" y1="-2.18557e-08" x2="245.5" y2="424" stroke="white"/>
<line x1="255.5" y1="-2.18557e-08" x2="255.5" y2="424" stroke="white"/>
<line x1="265.5" y1="-2.18557e-08" x2="265.5" y2="424" stroke="white"/>
<line x1="275.5" y1="-2.18557e-08" x2="275.5" y2="424" stroke="white"/>
<line x1="285.5" y1="-2.18557e-08" x2="285.5" y2="424" stroke="white"/>
<line x1="295.5" y1="-2.18557e-08" x2="295.5" y2="424" stroke="white"/>
<line x1="305.5" y1="-2.18557e-08" x2="305.5" y2="424" stroke="white"/>
<line x1="315.5" y1="-2.18557e-08" x2="315.5" y2="424" stroke="white"/>
<line x1="325.5" y1="-2.18557e-08" x2="325.5" y2="424" stroke="white"/>
<line x1="335.5" y1="-2.18557e-08" x2="335.5" y2="424" stroke="white"/>
<line x1="345.5" y1="-2.18557e-08" x2="345.5" y2="424" stroke="white"/>
<line x1="355.5" y1="-2.18557e-08" x2="355.5" y2="424" stroke="white"/>
<line x1="365.5" y1="-2.18557e-08" x2="365.5" y2="424" stroke="white"/>
<line x1="375.5" y1="-2.18557e-08" x2="375.5" y2="424" stroke="white"/>
<line x1="385.5" y1="-2.18557e-08" x2="385.5" y2="424" stroke="white"/>
<line x1="395.5" y1="-2.18557e-08" x2="395.5" y2="424" stroke="white"/>
<line x1="405.5" y1="-2.18557e-08" x2="405.5" y2="424" stroke="white"/>
<line x1="415.5" y1="-2.18557e-08" x2="415.5" y2="424" stroke="white"/>
<line x1="425.5" y1="-2.18557e-08" x2="425.5" y2="424" stroke="white"/>
<line x1="435.5" y1="-2.18557e-08" x2="435.5" y2="424" stroke="white"/>
<line x1="445.5" y1="-2.18557e-08" x2="445.5" y2="424" stroke="white"/>
<line x1="455.5" y1="-2.18557e-08" x2="455.5" y2="424" stroke="white"/>
<line x1="465.5" y1="-2.18557e-08" x2="465.5" y2="424" stroke="white"/>
<line x1="475.5" y1="-2.18557e-08" x2="475.5" y2="424" stroke="white"/>
<line x1="485.5" y1="-2.18557e-08" x2="485.5" y2="424" stroke="white"/>
<line x1="495.5" y1="-2.18557e-08" x2="495.5" y2="424" stroke="white"/>
<line x1="505.5" y1="-2.18557e-08" x2="505.5" y2="424" stroke="white"/>
<line x1="-930" y1="376.5" x2="510" y2="376.5" stroke="white"/>
<line x1="-930" y1="386.5" x2="510" y2="386.5" stroke="white"/>
<line x1="-930" y1="396.5" x2="510" y2="396.5" stroke="white"/>
<line x1="-930" y1="406.5" x2="510" y2="406.5" stroke="white"/>
<line x1="-930" y1="416.5" x2="510" y2="416.5" stroke="white"/>
<line x1="-930" y1="366.5" x2="510" y2="366.5" stroke="white"/>
<line x1="-930" y1="356.5" x2="510" y2="356.5" stroke="white"/>
<line x1="-930" y1="346.5" x2="510" y2="346.5" stroke="white"/>
<line x1="-930" y1="336.5" x2="510" y2="336.5" stroke="white"/>
<line x1="-930" y1="326.5" x2="510" y2="326.5" stroke="white"/>
<line x1="-930" y1="316.5" x2="510" y2="316.5" stroke="white"/>
<line x1="-930" y1="306.5" x2="510" y2="306.5" stroke="white"/>
<line x1="-930" y1="296.5" x2="510" y2="296.5" stroke="white"/>
<line x1="-930" y1="286.5" x2="510" y2="286.5" stroke="white"/>
<line x1="-930" y1="276.5" x2="510" y2="276.5" stroke="white"/>
<line x1="-930" y1="266.5" x2="510" y2="266.5" stroke="white"/>
<line x1="-930" y1="256.5" x2="510" y2="256.5" stroke="white"/>
<line x1="-930" y1="246.5" x2="510" y2="246.5" stroke="white"/>
<line x1="-930" y1="236.5" x2="510" y2="236.5" stroke="white"/>
<line x1="-930" y1="226.5" x2="510" y2="226.5" stroke="white"/>
<line x1="-930" y1="216.5" x2="510" y2="216.5" stroke="white"/>
<line x1="-930" y1="206.5" x2="510" y2="206.5" stroke="white"/>
<line x1="-930" y1="196.5" x2="510" y2="196.5" stroke="white"/>
<line x1="-930" y1="186.5" x2="510" y2="186.5" stroke="white"/>
<line x1="-930" y1="176.5" x2="510" y2="176.5" stroke="white"/>
<line x1="-930" y1="166.5" x2="510" y2="166.5" stroke="white"/>
<line x1="-930" y1="156.5" x2="510" y2="156.5" stroke="white"/>
<line x1="-930" y1="146.5" x2="510" y2="146.5" stroke="white"/>
<line x1="-930" y1="136.5" x2="510" y2="136.5" stroke="white"/>
<line x1="-930" y1="126.5" x2="510" y2="126.5" stroke="white"/>
<line x1="-930" y1="116.5" x2="510" y2="116.5" stroke="white"/>
<line x1="-930" y1="106.5" x2="510" y2="106.5" stroke="white"/>
<line x1="-930" y1="96.5" x2="510" y2="96.4999" stroke="white"/>
<line x1="-930" y1="86.5" x2="510" y2="86.4999" stroke="white"/>
<line x1="-930" y1="76.5" x2="510" y2="76.4999" stroke="white"/>
<line x1="-930" y1="66.5" x2="510" y2="66.4999" stroke="white"/>
<line x1="-930" y1="56.5" x2="510" y2="56.4999" stroke="white"/>
<line x1="-930" y1="46.5" x2="510" y2="46.4999" stroke="white"/>
<line x1="-930" y1="36.5" x2="510" y2="36.4999" stroke="white"/>
<line x1="-930" y1="26.5" x2="510" y2="26.4999" stroke="white"/>
<line x1="-930" y1="16.5" x2="510" y2="16.4999" stroke="white"/>
<line x1="-930" y1="6.5" x2="510" y2="6.49987" stroke="white"/>
</mask>
<g mask="url(#mask0_7601_11340)">
<g filter="url(#filter0_f_7601_11340)">
<ellipse cx="-66.5" cy="275.5" rx="351.5" ry="198.5" fill="url(#paint0_radial_7601_11340)"/>
</g>
</g>
</g>
<defs>
<filter id="filter0_f_7601_11340" x="-568" y="-73" width="1003" height="697" filterUnits="userSpaceOnUse" color-interpolation-filters="sRGB">
<feFlood flood-opacity="0" result="BackgroundImageFix"/>
<feBlend mode="normal" in="SourceGraphic" in2="BackgroundImageFix" result="shape"/>
<feGaussianBlur stdDeviation="75" result="effect1_foregroundBlur_7601_11340"/>
</filter>
<radialGradient id="paint0_radial_7601_11340" cx="0" cy="0" r="1" gradientUnits="userSpaceOnUse" gradientTransform="translate(-66.5 211.892) rotate(90) scale(297.923 527.556)">
<stop stop-color="#31FFFF"/>
<stop offset="0.361641" stop-color="#B1FFFF" stop-opacity="0.2"/>
<stop offset="1" stop-color="white" stop-opacity="0"/>
</radialGradient>
</defs>
</svg>
