<svg viewBox="0 0 900 204" fill="none" xmlns="http://www.w3.org/2000/svg">
<g style="mix-blend-mode:color-dodge" opacity="0.7">
<mask id="mask0_7601_5625" style="mask-type:alpha" maskUnits="userSpaceOnUse" x="-540" y="-220" width="1440" height="424">
<line x1="15.5" y1="-220" x2="15.5" y2="204" stroke="white"/>
<line x1="5.5" y1="-220" x2="5.50002" y2="204" stroke="white"/>
<line x1="25.5" y1="-220" x2="25.5" y2="204" stroke="white"/>
<line x1="35.5" y1="-220" x2="35.5" y2="204" stroke="white"/>
<line x1="45.5" y1="-220" x2="45.5" y2="204" stroke="white"/>
<line x1="55.5" y1="-220" x2="55.5" y2="204" stroke="white"/>
<line x1="65.5" y1="-220" x2="65.5" y2="204" stroke="white"/>
<line x1="75.5" y1="-220" x2="75.5" y2="204" stroke="white"/>
<line x1="85.5" y1="-220" x2="85.5" y2="204" stroke="white"/>
<line x1="95.5" y1="-220" x2="95.5" y2="204" stroke="white"/>
<line x1="105.5" y1="-220" x2="105.5" y2="204" stroke="white"/>
<line x1="115.5" y1="-220" x2="115.5" y2="204" stroke="white"/>
<line x1="125.5" y1="-220" x2="125.5" y2="204" stroke="white"/>
<line x1="135.5" y1="-220" x2="135.5" y2="204" stroke="white"/>
<line x1="145.5" y1="-220" x2="145.5" y2="204" stroke="white"/>
<line x1="155.5" y1="-220" x2="155.5" y2="204" stroke="white"/>
<line x1="165.5" y1="-220" x2="165.5" y2="204" stroke="white"/>
<line x1="175.5" y1="-220" x2="175.5" y2="204" stroke="white"/>
<line x1="185.5" y1="-220" x2="185.5" y2="204" stroke="white"/>
<line x1="195.5" y1="-220" x2="195.5" y2="204" stroke="white"/>
<line x1="205.5" y1="-220" x2="205.5" y2="204" stroke="white"/>
<line x1="215.5" y1="-220" x2="215.5" y2="204" stroke="white"/>
<line x1="225.5" y1="-220" x2="225.5" y2="204" stroke="white"/>
<line x1="235.5" y1="-220" x2="235.5" y2="204" stroke="white"/>
<line x1="245.5" y1="-220" x2="245.5" y2="204" stroke="white"/>
<line x1="255.5" y1="-220" x2="255.5" y2="204" stroke="white"/>
<line x1="265.5" y1="-220" x2="265.5" y2="204" stroke="white"/>
<line x1="275.5" y1="-220" x2="275.5" y2="204" stroke="white"/>
<line x1="285.5" y1="-220" x2="285.5" y2="204" stroke="white"/>
<line x1="295.5" y1="-220" x2="295.5" y2="204" stroke="white"/>
<line x1="305.5" y1="-220" x2="305.5" y2="204" stroke="white"/>
<line x1="315.5" y1="-220" x2="315.5" y2="204" stroke="white"/>
<line x1="325.5" y1="-220" x2="325.5" y2="204" stroke="white"/>
<line x1="335.5" y1="-220" x2="335.5" y2="204" stroke="white"/>
<line x1="345.5" y1="-220" x2="345.5" y2="204" stroke="white"/>
<line x1="355.5" y1="-220" x2="355.5" y2="204" stroke="white"/>
<line x1="365.5" y1="-220" x2="365.5" y2="204" stroke="white"/>
<line x1="375.5" y1="-220" x2="375.5" y2="204" stroke="white"/>
<line x1="385.5" y1="-220" x2="385.5" y2="204" stroke="white"/>
<line x1="395.5" y1="-220" x2="395.5" y2="204" stroke="white"/>
<line x1="405.5" y1="-220" x2="405.5" y2="204" stroke="white"/>
<line x1="415.5" y1="-220" x2="415.5" y2="204" stroke="white"/>
<line x1="425.5" y1="-220" x2="425.5" y2="204" stroke="white"/>
<line x1="435.5" y1="-220" x2="435.5" y2="204" stroke="white"/>
<line x1="445.5" y1="-220" x2="445.5" y2="204" stroke="white"/>
<line x1="455.5" y1="-220" x2="455.5" y2="204" stroke="white"/>
<line x1="465.5" y1="-220" x2="465.5" y2="204" stroke="white"/>
<line x1="475.5" y1="-220" x2="475.5" y2="204" stroke="white"/>
<line x1="485.5" y1="-220" x2="485.5" y2="204" stroke="white"/>
<line x1="495.5" y1="-220" x2="495.5" y2="204" stroke="white"/>
<line x1="505.5" y1="-220" x2="505.5" y2="204" stroke="white"/>
<line x1="515.5" y1="-220" x2="515.5" y2="204" stroke="white"/>
<line x1="525.5" y1="-220" x2="525.5" y2="204" stroke="white"/>
<line x1="535.5" y1="-220" x2="535.5" y2="204" stroke="white"/>
<line x1="545.5" y1="-220" x2="545.5" y2="204" stroke="white"/>
<line x1="555.5" y1="-220" x2="555.5" y2="204" stroke="white"/>
<line x1="565.5" y1="-220" x2="565.5" y2="204" stroke="white"/>
<line x1="575.5" y1="-220" x2="575.5" y2="204" stroke="white"/>
<line x1="585.5" y1="-220" x2="585.5" y2="204" stroke="white"/>
<line x1="595.5" y1="-220" x2="595.5" y2="204" stroke="white"/>
<line x1="605.5" y1="-220" x2="605.5" y2="204" stroke="white"/>
<line x1="615.5" y1="-220" x2="615.5" y2="204" stroke="white"/>
<line x1="625.5" y1="-220" x2="625.5" y2="204" stroke="white"/>
<line x1="635.5" y1="-220" x2="635.5" y2="204" stroke="white"/>
<line x1="645.5" y1="-220" x2="645.5" y2="204" stroke="white"/>
<line x1="655.5" y1="-220" x2="655.5" y2="204" stroke="white"/>
<line x1="665.5" y1="-220" x2="665.5" y2="204" stroke="white"/>
<line x1="675.5" y1="-220" x2="675.5" y2="204" stroke="white"/>
<line x1="685.5" y1="-220" x2="685.5" y2="204" stroke="white"/>
<line x1="695.5" y1="-220" x2="695.5" y2="204" stroke="white"/>
<line x1="705.5" y1="-220" x2="705.5" y2="204" stroke="white"/>
<line x1="715.5" y1="-220" x2="715.5" y2="204" stroke="white"/>
<line x1="725.5" y1="-220" x2="725.5" y2="204" stroke="white"/>
<line x1="735.5" y1="-220" x2="735.5" y2="204" stroke="white"/>
<line x1="745.5" y1="-220" x2="745.5" y2="204" stroke="white"/>
<line x1="755.5" y1="-220" x2="755.5" y2="204" stroke="white"/>
<line x1="765.5" y1="-220" x2="765.5" y2="204" stroke="white"/>
<line x1="775.5" y1="-220" x2="775.5" y2="204" stroke="white"/>
<line x1="785.5" y1="-220" x2="785.5" y2="204" stroke="white"/>
<line x1="795.5" y1="-220" x2="795.5" y2="204" stroke="white"/>
<line x1="805.5" y1="-220" x2="805.5" y2="204" stroke="white"/>
<line x1="815.5" y1="-220" x2="815.5" y2="204" stroke="white"/>
<line x1="825.5" y1="-220" x2="825.5" y2="204" stroke="white"/>
<line x1="835.5" y1="-220" x2="835.5" y2="204" stroke="white"/>
<line x1="845.5" y1="-220" x2="845.5" y2="204" stroke="white"/>
<line x1="855.5" y1="-220" x2="855.5" y2="204" stroke="white"/>
<line x1="865.5" y1="-220" x2="865.5" y2="204" stroke="white"/>
<line x1="875.5" y1="-220" x2="875.5" y2="204" stroke="white"/>
<line x1="885.5" y1="-220" x2="885.5" y2="204" stroke="white"/>
<line x1="895.5" y1="-220" x2="895.5" y2="204" stroke="white"/>
<line x1="-540" y1="156.5" x2="900" y2="156.5" stroke="white"/>
<line x1="-540" y1="166.5" x2="900" y2="166.5" stroke="white"/>
<line x1="-540" y1="176.5" x2="900" y2="176.5" stroke="white"/>
<line x1="-540" y1="186.5" x2="900" y2="186.5" stroke="white"/>
<line x1="-540" y1="196.5" x2="900" y2="196.5" stroke="white"/>
<line x1="-540" y1="146.5" x2="900" y2="146.5" stroke="white"/>
<line x1="-540" y1="136.5" x2="900" y2="136.5" stroke="white"/>
<line x1="-540" y1="126.5" x2="900" y2="126.5" stroke="white"/>
<line x1="-540" y1="116.5" x2="900" y2="116.5" stroke="white"/>
<line x1="-540" y1="106.5" x2="900" y2="106.5" stroke="white"/>
<line x1="-540" y1="96.5" x2="900" y2="96.4999" stroke="white"/>
<line x1="-540" y1="86.5" x2="900" y2="86.4999" stroke="white"/>
<line x1="-540" y1="76.5" x2="900" y2="76.4999" stroke="white"/>
<line x1="-540" y1="66.5" x2="900" y2="66.4999" stroke="white"/>
<line x1="-540" y1="56.5" x2="900" y2="56.4999" stroke="white"/>
<line x1="-540" y1="46.5" x2="900" y2="46.4999" stroke="white"/>
<line x1="-540" y1="36.5" x2="900" y2="36.4999" stroke="white"/>
<line x1="-540" y1="26.5" x2="900" y2="26.4999" stroke="white"/>
<line x1="-540" y1="16.5" x2="900" y2="16.4999" stroke="white"/>
<line x1="-540" y1="6.5" x2="900" y2="6.49987" stroke="white"/>
</mask>
<g mask="url(#mask0_7601_5625)">
<g filter="url(#filter0_f_7601_5625)">
<ellipse cx="63.5" cy="-4.5" rx="351.5" ry="198.5" fill="url(#paint0_radial_7601_5625)"/>
</g>
</g>
</g>
<defs>
<filter id="filter0_f_7601_5625" x="-438" y="-353" width="1003" height="697" filterUnits="userSpaceOnUse" color-interpolation-filters="sRGB">
<feFlood flood-opacity="0" result="BackgroundImageFix"/>
<feBlend mode="normal" in="SourceGraphic" in2="BackgroundImageFix" result="shape"/>
<feGaussianBlur stdDeviation="75" result="effect1_foregroundBlur_7601_5625"/>
</filter>
<radialGradient id="paint0_radial_7601_5625" cx="0" cy="0" r="1" gradientUnits="userSpaceOnUse" gradientTransform="translate(63.5 -68.1077) rotate(90) scale(297.923 527.556)">
<stop stop-color="#31FFFF"/>
<stop offset="0.361641" stop-color="#B1FFFF" stop-opacity="0.2"/>
<stop offset="1" stop-color="white" stop-opacity="0"/>
</radialGradient>
</defs>
</svg>
