<svg viewBox="0 0 16 13" fill="none" xmlns="http://www.w3.org/2000/svg">
<path d="M13.5447 1.77046C12.5249 1.30254 11.4313 0.957799 10.2879 0.76035C10.2671 0.756539 10.2463 0.766062 10.2356 0.785109C10.0949 1.03525 9.93915 1.36158 9.83006 1.61808C8.60027 1.43397 7.37679 1.43397 6.17221 1.61808C6.0631 1.35588 5.90166 1.03525 5.76038 0.785109C5.74966 0.766698 5.72886 0.757175 5.70803 0.76035C4.56527 0.957168 3.47171 1.30191 2.45129 1.77046C2.44246 1.77427 2.43488 1.78063 2.42986 1.78887C0.355594 4.88778 -0.212634 7.91052 0.0661201 10.8958C0.0673814 10.9104 0.0755799 10.9244 0.086932 10.9332C1.45547 11.9383 2.78114 12.5484 4.08219 12.9528C4.10301 12.9592 4.12507 12.9516 4.13832 12.9344C4.44608 12.5141 4.72043 12.071 4.95565 11.6049C4.96953 11.5777 4.95628 11.5453 4.92791 11.5345C4.49275 11.3694 4.0784 11.1681 3.67982 10.9396C3.64829 10.9212 3.64577 10.8761 3.67477 10.8545C3.75865 10.7916 3.84255 10.7263 3.92264 10.6602C3.93713 10.6482 3.95732 10.6456 3.97435 10.6532C6.59286 11.8488 9.4277 11.8488 12.0153 10.6532C12.0323 10.645 12.0525 10.6475 12.0677 10.6596C12.1478 10.7256 12.2316 10.7916 12.3161 10.8545C12.3452 10.8761 12.3433 10.9212 12.3117 10.9396C11.9131 11.1726 11.4988 11.3694 11.063 11.5338C11.0346 11.5446 11.022 11.5777 11.0359 11.6049C11.2762 12.0703 11.5505 12.5135 11.8526 12.9338C11.8652 12.9516 11.8879 12.9592 11.9087 12.9528C13.2161 12.5484 14.5417 11.9383 15.9103 10.9332C15.9223 10.9244 15.9298 10.911 15.9311 10.8964C16.2647 7.44512 15.3723 4.44717 13.5655 1.78951C13.5611 1.78063 13.5535 1.77427 13.5447 1.77046ZM5.34668 9.07807C4.55833 9.07807 3.90876 8.35431 3.90876 7.46545C3.90876 6.57659 4.54574 5.85283 5.34668 5.85283C6.15392 5.85283 6.79721 6.58295 6.78459 7.46545C6.78459 8.35431 6.14761 9.07807 5.34668 9.07807ZM10.6632 9.07807C9.87484 9.07807 9.22526 8.35431 9.22526 7.46545C9.22526 6.57659 9.86222 5.85283 10.6632 5.85283C11.4704 5.85283 12.1137 6.58295 12.1011 7.46545C12.1011 8.35431 11.4704 9.07807 10.6632 9.07807Z" fill="#1DF2C9"/>
</svg>
