<svg viewBox="0 0 13 11" fill="none" xmlns="http://www.w3.org/2000/svg">
<path fill-rule="evenodd" clip-rule="evenodd" d="M0.892004 4.6292C4.3751 3.11167 6.69772 2.11122 7.85984 1.62785C11.1779 0.247741 11.8674 0.00800077 12.3168 8.44061e-05C12.4156 -0.00165671 12.6366 0.0228384 12.7798 0.138996C12.9007 0.237078 12.9339 0.369572 12.9498 0.462564C12.9658 0.555556 12.9856 0.767394 12.9698 0.932919C12.79 2.82219 12.012 7.40694 11.6162 9.52295C11.4487 10.4183 11.1189 10.7185 10.7996 10.7479C10.1058 10.8118 9.5789 10.2894 8.90688 9.84884C7.85529 9.15952 7.26122 8.73041 6.24047 8.05776C5.06082 7.28039 5.82554 6.85313 6.49782 6.15488C6.67376 5.97214 9.73085 3.19148 9.79003 2.93923C9.79743 2.90768 9.80429 2.79008 9.73443 2.72799C9.66457 2.66589 9.56146 2.68712 9.48705 2.70401C9.38158 2.72795 7.70166 3.83831 4.44729 6.0351C3.97045 6.36253 3.53855 6.52207 3.15158 6.51371C2.72497 6.50449 1.90435 6.2725 1.2943 6.0742C0.546052 5.83097 -0.0486409 5.70238 0.00314346 5.28931C0.030116 5.07415 0.326403 4.85412 0.892004 4.6292Z" fill="#1DF2C9"/>
</svg>
