<svg viewBox="0 0 12 12" fill="none" xmlns="http://www.w3.org/2000/svg">
<path fill-rule="evenodd" clip-rule="evenodd" d="M8.40657 5.17061L8.40639 5.17105C8.81435 5.68259 9.05815 6.3305 9.05815 7.03519C9.05815 7.75037 8.80704 8.40707 8.38808 8.92208L8.352 8.96642L8.34243 8.91006C8.33431 8.86213 8.32474 8.81376 8.31364 8.76497C8.10396 7.84371 7.42079 7.05371 6.2964 6.41406C5.53711 5.98331 5.1025 5.46461 4.98839 4.87529C4.91469 4.49421 4.96948 4.11144 5.07537 3.78358C5.18121 3.45583 5.33868 3.18124 5.47245 3.01591L5.47253 3.01581L5.90992 2.48097C5.98663 2.38717 6.13018 2.38717 6.20689 2.48097L8.40657 5.17061ZM9.09838 4.63626L9.09847 4.63606L6.16677 1.05133C6.11079 0.982889 6.006 0.982889 5.95002 1.05133L3.01828 4.6361L3.01837 4.6363L3.00883 4.64813C2.46933 5.31759 2.14648 6.16836 2.14648 7.09448C2.14648 9.25138 3.89786 11 6.05838 11C8.21891 11 9.97029 9.25138 9.97029 7.09448C9.97029 6.16836 9.64744 5.31759 9.10796 4.64813L9.09838 4.63626ZM3.71976 5.15906L3.71988 5.15892L3.9821 4.83827L3.99003 4.89746C3.9963 4.94436 4.00392 4.99149 4.01295 5.03883C4.18261 5.92905 4.78872 6.67133 5.80208 7.24623C6.68291 7.74755 7.19577 8.32403 7.34354 8.95627C7.40519 9.22013 7.41619 9.47974 7.38949 9.70673L7.38783 9.72073L7.37512 9.72696C6.97757 9.92123 6.53065 10.0302 6.0583 10.0302C4.40157 10.0302 3.05844 8.68933 3.05844 7.03519C3.05844 6.325 3.30605 5.67244 3.71976 5.15906Z" fill="#75C8FF"/>
</svg>
