<svg viewBox="0 0 24 24" fill="none" xmlns="http://www.w3.org/2000/svg">
<path d="M23.8406 10.1166L21.4481 5.3297C21.3599 5.15352 21.238 4.99642 21.0891 4.86737C20.9403 4.73833 20.7674 4.63988 20.5805 4.57763C20.3936 4.51539 20.1963 4.49057 19.9998 4.5046C19.8033 4.51863 19.6114 4.57123 19.4353 4.65939L17.1037 5.8247L12.1921 4.52533C12.0661 4.49253 11.9338 4.49253 11.8078 4.52533L6.89621 5.8247L4.56465 4.65939C4.38847 4.57123 4.19666 4.51863 4.00015 4.5046C3.80365 4.49057 3.60631 4.51539 3.4194 4.57763C3.23249 4.63988 3.05967 4.73833 2.91081 4.86737C2.76195 4.99642 2.63997 5.15352 2.55183 5.3297L0.159334 10.1156C0.0711678 10.2918 0.0185686 10.4836 0.00454033 10.6801C-0.00948797 10.8766 0.0153294 11.074 0.0775751 11.2609C0.139821 11.4478 0.238276 11.6206 0.367317 11.7695C0.496358 11.9183 0.653459 12.0403 0.829646 12.1285L3.3609 13.395L8.56308 17.1103C8.63974 17.1649 8.7259 17.2046 8.81715 17.2275L14.8171 18.7275C14.9428 18.759 15.0745 18.7575 15.1993 18.723C15.3242 18.6885 15.438 18.6222 15.5296 18.5306L19.2796 14.7806L20.6934 13.3669L23.1703 12.1285C23.5259 11.9504 23.7962 11.6385 23.9219 11.2613C24.0476 10.884 24.0183 10.4723 23.8406 10.1166ZM18.6946 13.245L15.4687 10.6613C15.3242 10.5455 15.142 10.4873 14.9571 10.4979C14.7723 10.5085 14.5979 10.587 14.4675 10.7185C12.7978 12.4003 10.9368 12.1875 9.74996 11.4375L13.8037 7.50002H16.7859L19.3368 12.601L18.6946 13.245ZM14.7693 17.1694L9.32058 15.8072L4.70808 12.5128L7.33308 7.26283L12 6.02627L12.9187 6.26908L8.69996 10.3641L8.69246 10.3725C8.53365 10.5313 8.41253 10.7238 8.33804 10.9356C8.26354 11.1475 8.23757 11.3734 8.26205 11.5967C8.28653 11.8199 8.36082 12.0348 8.47945 12.2255C8.59808 12.4162 8.75802 12.5778 8.94746 12.6985C10.875 13.9294 13.2009 13.7297 15.0328 12.2297L17.625 14.3119L14.7693 17.1694ZM12.3581 20.4319C12.3176 20.594 12.2241 20.7379 12.0925 20.8408C11.9608 20.9438 11.7986 20.9998 11.6315 21C11.5699 20.9999 11.5085 20.9924 11.4487 20.9775L7.5384 19.9997C7.44703 19.9772 7.3608 19.9374 7.28433 19.8825L4.81402 18.1181C4.66213 17.9989 4.56209 17.8256 4.53474 17.6345C4.50739 17.4433 4.55484 17.2489 4.6672 17.0919C4.77956 16.9348 4.94818 16.8271 5.13794 16.7913C5.3277 16.7554 5.52397 16.7942 5.6859 16.8994L8.03996 18.5813L11.8125 19.5225C12.0054 19.5708 12.1712 19.6937 12.2736 19.8642C12.3759 20.0348 12.4063 20.2389 12.3581 20.4319Z" fill="white"/>
</svg>
