<svg viewBox="0 0 265 236" fill="none" xmlns="http://www.w3.org/2000/svg">
<path d="M75.3938 48.75C71.1021 48.75 67.3104 47.7604 64.0188 45.7812C60.7271 43.8021 58.1438 41.0104 56.2688 37.4062C54.3938 33.8021 53.4563 29.5833 53.4563 24.75C53.4563 19.875 54.3938 15.6354 56.2688 12.0312C58.1438 8.42708 60.7271 5.63542 64.0188 3.65625C67.3104 1.67708 71.1021 0.6875 75.3938 0.6875C78.8938 0.6875 82.0604 1.375 84.8938 2.75C87.7271 4.125 90.0604 6.0625 91.8938 8.5625C93.7479 11.0625 94.9354 14.0104 95.4563 17.4062H87.05C86.425 14.4479 85.0813 12.1562 83.0188 10.5312C80.9563 8.90625 78.4354 8.09375 75.4563 8.09375C72.6229 8.09375 70.175 8.78125 68.1125 10.1562C66.0708 11.5312 64.4979 13.4688 63.3938 15.9688C62.3104 18.4688 61.7688 21.3958 61.7688 24.75C61.7688 28.0833 62.3104 31 63.3938 33.5C64.4979 35.9792 66.0708 37.9062 68.1125 39.2812C70.1542 40.6562 72.6021 41.3438 75.4563 41.3438C78.4146 41.3438 80.925 40.5417 82.9875 38.9375C85.05 37.3333 86.4146 35.0521 87.0813 32.0938H95.4563C94.9354 35.4896 93.7479 38.4375 91.8938 40.9375C90.0604 43.4167 87.7271 45.3438 84.8938 46.7188C82.0604 48.0729 78.8938 48.75 75.3938 48.75ZM113.724 48.75C110.432 48.75 107.578 48.0104 105.161 46.5312C102.745 45.0521 100.88 43.0208 99.5675 40.4375C98.2758 37.8333 97.63 34.8646 97.63 31.5312C97.63 28.1771 98.2967 25.2083 99.63 22.625C100.984 20.0208 102.849 17.9792 105.224 16.5C107.599 15 110.328 14.25 113.411 14.25C116.578 14.25 119.349 14.9792 121.724 16.4375C124.099 17.8958 125.943 19.9167 127.255 22.5C128.568 25.0625 129.224 28.0312 129.224 31.4062V33.5625H105.349C105.453 36.25 106.245 38.4167 107.724 40.0625C109.203 41.7083 111.265 42.5312 113.911 42.5312C115.89 42.5312 117.526 42.1042 118.818 41.25C120.109 40.375 120.984 39.2292 121.443 37.8125H128.818C128.401 39.9583 127.484 41.8542 126.068 43.5C124.672 45.1458 122.911 46.4375 120.786 47.375C118.661 48.2917 116.307 48.75 113.724 48.75ZM105.411 28.125H121.661C121.411 25.7708 120.557 23.9167 119.099 22.5625C117.661 21.1875 115.807 20.5 113.536 20.5C111.245 20.5 109.38 21.1875 107.943 22.5625C106.526 23.9167 105.682 25.7708 105.411 28.125ZM150.085 15V21.3438H143.366V38.5312C143.366 39.7188 143.606 40.5417 144.085 41C144.564 41.4375 145.439 41.6562 146.71 41.6562H150.085V48H145.335C141.981 48 139.491 47.3229 137.866 45.9688C136.262 44.6146 135.46 42.5208 135.46 39.6875V21.3438H129.71V15H135.46V6H143.366V15H150.085ZM164.884 48.6562C161.425 48.6562 158.603 47.5417 156.415 45.3125C154.228 43.0833 153.134 39.8542 153.134 35.625V15H161.009V34.375C161.009 36.7917 161.592 38.625 162.759 39.875C163.925 41.125 165.561 41.75 167.665 41.75C169.748 41.75 171.467 41.1042 172.821 39.8125C174.196 38.5208 174.884 36.4688 174.884 33.6562V15H182.79V48H175.04V42.9375C172.728 46.75 169.342 48.6562 164.884 48.6562ZM200.839 48.7812C196.818 48.7812 193.453 47.8438 190.745 45.9688C188.058 44.0729 186.589 41.3542 186.339 37.8125H194.12C194.287 39.4167 194.933 40.6667 196.058 41.5625C197.183 42.4375 198.735 42.875 200.714 42.875C202.61 42.875 204.099 42.5 205.183 41.75C206.287 41 206.839 40.0417 206.839 38.875C206.839 37.875 206.433 37.0729 205.62 36.4688C204.808 35.8646 203.714 35.4167 202.339 35.125L196.714 33.9688C190.297 32.6354 187.089 29.4583 187.089 24.4375C187.089 21.3958 188.297 18.9479 190.714 17.0938C193.13 15.2188 196.349 14.2812 200.37 14.2812C204.37 14.2812 207.62 15.2708 210.12 17.25C212.641 19.2083 213.943 21.8854 214.026 25.2812H206.62C206.578 23.8021 206.005 22.5833 204.901 21.625C203.797 20.6667 202.349 20.1875 200.558 20.1875C198.828 20.1875 197.464 20.5729 196.464 21.3438C195.464 22.1146 194.964 23.0625 194.964 24.1875C194.964 25.1667 195.349 25.9688 196.12 26.5938C196.891 27.1979 197.964 27.6562 199.339 27.9688L205.276 29.1875C208.547 29.875 210.953 30.9583 212.495 32.4375C214.058 33.9167 214.839 35.8646 214.839 38.2812C214.839 40.4271 214.235 42.2917 213.026 43.875C211.839 45.4375 210.193 46.6458 208.089 47.5C205.985 48.3542 203.568 48.7812 200.839 48.7812ZM0.0237427 106L16.6487 59.4375H27.0237L43.5862 106H34.4925L30.7737 94.875H12.7112L8.89874 106H0.0237427ZM15.0237 88.0938H28.5237L26.3362 81.5312C25.6487 79.3854 24.9404 77.1458 24.2112 74.8125C23.5029 72.4792 22.7112 69.8438 21.8362 66.9062C20.9612 69.8438 20.1592 72.4792 19.43 74.8125C18.7008 77.1458 17.9821 79.3854 17.2737 81.5312L15.0237 88.0938ZM74.76 119.062H66.885V101.031H66.7912C65.7496 102.906 64.385 104.312 62.6975 105.25C61.01 106.188 59.0933 106.656 56.9475 106.656C54.0725 106.656 51.5621 105.938 49.4162 104.5C47.2704 103.062 45.6037 101.062 44.4162 98.5C43.2496 95.9167 42.6662 92.9062 42.6662 89.4688C42.6662 86.0938 43.26 83.125 44.4475 80.5625C45.635 77.9792 47.3017 75.9688 49.4475 74.5312C51.5933 73.0729 54.0725 72.3438 56.885 72.3438C59.0308 72.3438 60.9787 72.7812 62.7287 73.6562C64.4787 74.5312 65.8642 75.8438 66.885 77.5938H67.01V73H74.76V119.062ZM58.7912 100.062C61.3746 100.062 63.4371 99.1042 64.9787 97.1875C66.5412 95.25 67.3225 92.6771 67.3225 89.4688C67.3225 86.2604 66.5412 83.6979 64.9787 81.7812C63.4371 79.8438 61.3746 78.875 58.7912 78.875C56.3537 78.875 54.385 79.7917 52.885 81.625C51.385 83.4583 50.635 86.0729 50.635 89.4688C50.635 92.8854 51.385 95.5104 52.885 97.3438C54.385 99.1562 56.3537 100.062 58.7912 100.062ZM91.59 106.656C88.1317 106.656 85.3087 105.542 83.1212 103.312C80.9337 101.083 79.84 97.8542 79.84 93.625V73H87.715V92.375C87.715 94.7917 88.2983 96.625 89.465 97.875C90.6317 99.125 92.2671 99.75 94.3712 99.75C96.4546 99.75 98.1733 99.1042 99.5275 97.8125C100.902 96.5208 101.59 94.4688 101.59 91.6562V73H109.496V106H101.746V100.938C99.4337 104.75 96.0483 106.656 91.59 106.656ZM124.67 106.531C121.378 106.531 118.649 105.708 116.482 104.062C114.337 102.396 113.264 99.9167 113.264 96.625C113.264 94.125 113.868 92.1979 115.076 90.8438C116.305 89.4688 117.899 88.4688 119.857 87.8438C121.837 87.2188 123.962 86.7917 126.232 86.5625C129.295 86.2083 131.43 85.8958 132.639 85.625C133.847 85.3542 134.451 84.6562 134.451 83.5312V83.2812C134.451 81.8646 133.91 80.7083 132.826 79.8125C131.764 78.9167 130.295 78.4688 128.42 78.4688C126.503 78.4688 124.941 78.9167 123.732 79.8125C122.545 80.7083 121.899 81.8542 121.795 83.25H114.201C114.389 79.9792 115.753 77.3438 118.295 75.3438C120.837 73.3438 124.264 72.3438 128.576 72.3438C132.868 72.3438 136.222 73.3438 138.639 75.3438C141.055 77.3438 142.264 80.0625 142.264 83.5V106H134.514V101.344H134.389C133.597 102.802 132.451 104.031 130.951 105.031C129.451 106.031 127.357 106.531 124.67 106.531ZM126.607 100.688C129.191 100.688 131.149 100.021 132.482 98.6875C133.816 97.3333 134.482 95.6979 134.482 93.7812V90.2188C134.003 90.5312 133.076 90.8229 131.701 91.0938C130.326 91.3438 128.826 91.5938 127.201 91.8438C125.514 92.0938 124.045 92.5729 122.795 93.2812C121.566 93.9688 120.951 95.0625 120.951 96.5625C120.951 97.8542 121.462 98.8646 122.482 99.5938C123.503 100.323 124.878 100.688 126.607 100.688ZM147.312 106V73H154.906V78.4688H155C155.604 76.5938 156.552 75.1667 157.844 74.1875C159.156 73.1875 160.875 72.6875 163 72.6875C163.542 72.6875 164.021 72.7083 164.438 72.75C164.875 72.7708 165.25 72.7917 165.562 72.8125V79.8125C165.271 79.7708 164.771 79.7188 164.062 79.6562C163.354 79.5938 162.615 79.5625 161.844 79.5625C159.969 79.5625 158.385 80.2083 157.094 81.5C155.823 82.7917 155.188 84.7292 155.188 87.3125V106H147.312ZM168.455 106V73H176.33V106H168.455ZM172.392 68.0938C171.038 68.0938 169.913 67.6667 169.017 66.8125C168.122 65.9375 167.674 64.8646 167.674 63.5938C167.674 62.3229 168.122 61.2604 169.017 60.4062C169.913 59.5521 171.038 59.125 172.392 59.125C173.726 59.125 174.84 59.5521 175.736 60.4062C176.632 61.2604 177.08 62.3229 177.08 63.5938C177.08 64.8646 176.632 65.9375 175.736 66.8125C174.84 67.6667 173.726 68.0938 172.392 68.0938ZM193.16 106.656C189.702 106.656 186.879 105.542 184.691 103.312C182.504 101.083 181.41 97.8542 181.41 93.625V73H189.285V92.375C189.285 94.7917 189.868 96.625 191.035 97.875C192.202 99.125 193.837 99.75 195.941 99.75C198.025 99.75 199.743 99.1042 201.097 97.8125C202.472 96.5208 203.16 94.4688 203.16 91.6562V73H211.066V106H203.316V100.938C201.004 104.75 197.618 106.656 193.16 106.656ZM216.177 106V73H223.802V78.7188C224.802 76.5938 226.188 75 227.959 73.9375C229.73 72.875 231.657 72.3438 233.74 72.3438C235.969 72.3438 237.938 72.9167 239.646 74.0625C241.355 75.1875 242.552 76.6979 243.24 78.5938C244.115 76.6979 245.48 75.1875 247.334 74.0625C249.188 72.9167 251.323 72.3438 253.74 72.3438C256.865 72.3438 259.49 73.3542 261.615 75.375C263.74 77.3958 264.802 80.3438 264.802 84.2188V106H256.896V85.3438C256.896 83.1562 256.292 81.5625 255.084 80.5625C253.896 79.5417 252.459 79.0312 250.771 79.0312C248.771 79.0312 247.188 79.6562 246.021 80.9062C244.875 82.1562 244.302 83.7708 244.302 85.75V106H236.646V84.9688C236.646 83.1771 236.084 81.7396 234.959 80.6562C233.834 79.5729 232.396 79.0312 230.646 79.0312C228.875 79.0312 227.334 79.6562 226.021 80.9062C224.709 82.1354 224.052 83.9375 224.052 86.3125V106H216.177ZM14.7337 117.438V164H6.48375V117.438H14.7337ZM28.0638 145.344V164H20.1888V131H27.9388V136.062C30.2304 132.25 33.6054 130.344 38.0638 130.344C41.5221 130.344 44.345 131.458 46.5325 133.688C48.7408 135.917 49.845 139.146 49.845 143.375V164H41.9388V144.625C41.9388 142.208 41.3554 140.375 40.1888 139.125C39.0221 137.875 37.3867 137.25 35.2825 137.25C33.22 137.25 31.5013 137.896 30.1263 139.188C28.7513 140.479 28.0638 142.531 28.0638 145.344ZM69.55 164.75C66.3417 164.75 63.5188 164.021 61.0813 162.562C58.6646 161.104 56.7792 159.083 55.425 156.5C54.0917 153.917 53.425 150.927 53.425 147.531C53.425 144.135 54.0917 141.146 55.425 138.562C56.7792 135.958 58.6646 133.927 61.0813 132.469C63.5188 130.99 66.3417 130.25 69.55 130.25C72.3208 130.25 74.7896 130.792 76.9563 131.875C79.1229 132.938 80.8625 134.417 82.175 136.312C83.5083 138.188 84.2896 140.354 84.5188 142.812H76.8C76.5083 141.042 75.7479 139.604 74.5188 138.5C73.3104 137.375 71.6854 136.812 69.6438 136.812C67.0604 136.812 65.0396 137.781 63.5813 139.719C62.1229 141.656 61.3938 144.26 61.3938 147.531C61.3938 150.781 62.1229 153.375 63.5813 155.312C65.0396 157.229 67.0604 158.188 69.6438 158.188C71.7063 158.188 73.3104 157.646 74.4563 156.562C75.6021 155.458 76.3625 153.99 76.7375 152.156H84.5188C84.3313 154.573 83.5708 156.729 82.2375 158.625C80.925 160.521 79.175 162.021 76.9875 163.125C74.8208 164.208 72.3417 164.75 69.55 164.75ZM99.6613 164.656C96.2029 164.656 93.38 163.542 91.1925 161.312C89.005 159.083 87.9113 155.854 87.9113 151.625V131H95.7863V150.375C95.7863 152.792 96.3696 154.625 97.5363 155.875C98.7029 157.125 100.338 157.75 102.443 157.75C104.526 157.75 106.245 157.104 107.599 155.812C108.974 154.521 109.661 152.469 109.661 149.656V131H117.568V164H109.818V158.938C107.505 162.75 104.12 164.656 99.6613 164.656ZM140.491 164.656C138.325 164.656 136.366 164.188 134.616 163.25C132.887 162.312 131.512 160.885 130.491 158.969H130.429V164H122.679V117.438H130.554V135.688H130.616C131.679 133.875 133.064 132.531 134.772 131.656C136.481 130.781 138.397 130.344 140.522 130.344C143.356 130.344 145.835 131.073 147.96 132.531C150.106 133.969 151.772 135.979 152.96 138.562C154.168 141.125 154.772 144.094 154.772 147.469C154.772 150.906 154.179 153.917 152.991 156.5C151.825 159.062 150.168 161.062 148.022 162.5C145.877 163.938 143.366 164.656 140.491 164.656ZM138.647 158.062C141.085 158.062 143.054 157.156 144.554 155.344C146.054 153.51 146.804 150.885 146.804 147.469C146.804 144.073 146.054 141.458 144.554 139.625C143.054 137.792 141.085 136.875 138.647 136.875C136.064 136.875 133.991 137.844 132.429 139.781C130.887 141.698 130.116 144.26 130.116 147.469C130.116 150.677 130.887 153.25 132.429 155.188C133.991 157.104 136.064 158.062 138.647 158.062ZM168.821 164.531C165.53 164.531 162.8 163.708 160.634 162.062C158.488 160.396 157.415 157.917 157.415 154.625C157.415 152.125 158.019 150.198 159.227 148.844C160.457 147.469 162.05 146.469 164.009 145.844C165.988 145.219 168.113 144.792 170.384 144.562C173.446 144.208 175.582 143.896 176.79 143.625C177.998 143.354 178.602 142.656 178.602 141.531V141.281C178.602 139.865 178.061 138.708 176.977 137.812C175.915 136.917 174.446 136.469 172.571 136.469C170.655 136.469 169.092 136.917 167.884 137.812C166.696 138.708 166.05 139.854 165.946 141.25H158.352C158.54 137.979 159.905 135.344 162.446 133.344C164.988 131.344 168.415 130.344 172.727 130.344C177.019 130.344 180.373 131.344 182.79 133.344C185.207 135.344 186.415 138.062 186.415 141.5V164H178.665V159.344H178.54C177.748 160.802 176.602 162.031 175.102 163.031C173.602 164.031 171.509 164.531 168.821 164.531ZM170.759 158.688C173.342 158.688 175.3 158.021 176.634 156.688C177.967 155.333 178.634 153.698 178.634 151.781V148.219C178.155 148.531 177.227 148.823 175.852 149.094C174.477 149.344 172.977 149.594 171.352 149.844C169.665 150.094 168.196 150.573 166.946 151.281C165.717 151.969 165.102 153.062 165.102 154.562C165.102 155.854 165.613 156.865 166.634 157.594C167.655 158.323 169.03 158.688 170.759 158.688ZM208.87 131V137.344H202.151V154.531C202.151 155.719 202.391 156.542 202.87 157C203.349 157.438 204.224 157.656 205.495 157.656H208.87V164H204.12C200.766 164 198.276 163.323 196.651 161.969C195.047 160.615 194.245 158.521 194.245 155.688V137.344H188.495V131H194.245V122H202.151V131H208.87ZM226.169 164.75C222.919 164.75 220.075 164.031 217.638 162.594C215.2 161.135 213.294 159.115 211.919 156.531C210.565 153.948 209.888 150.948 209.888 147.531C209.888 144.115 210.565 141.115 211.919 138.531C213.294 135.927 215.2 133.896 217.638 132.438C220.075 130.979 222.919 130.25 226.169 130.25C229.398 130.25 232.231 130.979 234.669 132.438C237.127 133.896 239.033 135.927 240.388 138.531C241.763 141.115 242.45 144.115 242.45 147.531C242.45 150.948 241.763 153.948 240.388 156.531C239.033 159.115 237.127 161.135 234.669 162.594C232.231 164.031 229.398 164.75 226.169 164.75ZM226.169 158.156C228.69 158.156 230.7 157.208 232.2 155.312C233.7 153.417 234.45 150.823 234.45 147.531C234.45 144.24 233.7 141.635 232.2 139.719C230.7 137.802 228.69 136.844 226.169 136.844C223.627 136.844 221.606 137.802 220.106 139.719C218.606 141.615 217.856 144.219 217.856 147.531C217.856 150.823 218.606 153.417 220.106 155.312C221.606 157.208 223.627 158.156 226.169 158.156ZM245.999 164V131H253.592V136.469H253.686C254.29 134.594 255.238 133.167 256.53 132.188C257.842 131.188 259.561 130.688 261.686 130.688C262.228 130.688 262.707 130.708 263.124 130.75C263.561 130.771 263.936 130.792 264.249 130.812V137.812C263.957 137.771 263.457 137.719 262.749 137.656C262.04 137.594 261.301 137.562 260.53 137.562C258.655 137.562 257.072 138.208 255.78 139.5C254.509 140.792 253.874 142.729 253.874 145.312V164H245.999ZM18.4163 222V175.438H36.1975C39.6142 175.438 42.5621 176.042 45.0413 177.25C47.5413 178.458 49.4579 180.177 50.7913 182.406C52.1454 184.635 52.8225 187.271 52.8225 190.312C52.8225 193.375 52.135 196.021 50.76 198.25C49.385 200.479 47.4371 202.208 44.9163 203.438C42.4163 204.646 39.4579 205.25 36.0413 205.25H26.6663V222H18.4163ZM26.6663 198.188H35.7288C38.4996 198.188 40.6871 197.49 42.2913 196.094C43.8954 194.677 44.6975 192.75 44.6975 190.312C44.6975 187.896 43.8954 185.99 42.2913 184.594C40.6871 183.198 38.4996 182.5 35.7288 182.5H26.6663V198.188ZM55.6838 222V189H63.2775V194.469H63.3713C63.9754 192.594 64.9233 191.167 66.215 190.188C67.5275 189.188 69.2463 188.688 71.3713 188.688C71.9129 188.688 72.3921 188.708 72.8088 188.75C73.2463 188.771 73.6213 188.792 73.9338 188.812V195.812C73.6421 195.771 73.1421 195.719 72.4338 195.656C71.7254 195.594 70.9858 195.562 70.215 195.562C68.34 195.562 66.7567 196.208 65.465 197.5C64.1942 198.792 63.5588 200.729 63.5588 203.312V222H55.6838ZM90.8887 222.75C87.6387 222.75 84.795 222.031 82.3575 220.594C79.92 219.135 78.0137 217.115 76.6387 214.531C75.2846 211.948 74.6075 208.948 74.6075 205.531C74.6075 202.115 75.2846 199.115 76.6387 196.531C78.0137 193.927 79.92 191.896 82.3575 190.438C84.795 188.979 87.6387 188.25 90.8887 188.25C94.1179 188.25 96.9512 188.979 99.3887 190.438C101.847 191.896 103.753 193.927 105.107 196.531C106.482 199.115 107.17 202.115 107.17 205.531C107.17 208.948 106.482 211.948 105.107 214.531C103.753 217.115 101.847 219.135 99.3887 220.594C96.9512 222.031 94.1179 222.75 90.8887 222.75ZM90.8887 216.156C93.4096 216.156 95.42 215.208 96.92 213.312C98.42 211.417 99.17 208.823 99.17 205.531C99.17 202.24 98.42 199.635 96.92 197.719C95.42 195.802 93.4096 194.844 90.8887 194.844C88.3471 194.844 86.3262 195.802 84.8262 197.719C83.3262 199.615 82.5762 202.219 82.5762 205.531C82.5762 208.823 83.3262 211.417 84.8262 213.312C86.3262 215.208 88.3471 216.156 90.8887 216.156ZM125.688 235.5C121.333 235.5 117.875 234.562 115.312 232.688C112.75 230.812 111.25 228.271 110.812 225.062H118.531C118.906 226.479 119.729 227.552 121 228.281C122.271 229.031 123.833 229.406 125.688 229.406C128.146 229.406 130.052 228.74 131.406 227.406C132.781 226.073 133.469 224.146 133.469 221.625V216.594H133.438C132.375 218.531 130.99 219.958 129.281 220.875C127.573 221.771 125.635 222.219 123.469 222.219C120.594 222.219 118.083 221.5 115.938 220.062C113.792 218.625 112.125 216.646 110.938 214.125C109.771 211.583 109.188 208.656 109.188 205.344C109.188 202.01 109.781 199.062 110.969 196.5C112.156 193.938 113.823 191.938 115.969 190.5C118.115 189.062 120.594 188.344 123.406 188.344C125.552 188.344 127.49 188.802 129.219 189.719C130.969 190.615 132.385 192.01 133.469 193.906H133.5V189H141.281V221.156C141.281 224.552 140.604 227.302 139.25 229.406C137.896 231.531 136.042 233.073 133.688 234.031C131.333 235.01 128.667 235.5 125.688 235.5ZM125.312 215.719C127.896 215.719 129.958 214.771 131.5 212.875C133.062 210.958 133.844 208.417 133.844 205.25C133.844 202.083 133.062 199.552 131.5 197.656C129.958 195.74 127.896 194.781 125.312 194.781C122.875 194.781 120.906 195.688 119.406 197.5C117.906 199.312 117.156 201.896 117.156 205.25C117.156 208.625 117.906 211.219 119.406 213.031C120.906 214.823 122.875 215.719 125.312 215.719ZM146.361 222V189H153.955V194.469H154.049C154.653 192.594 155.601 191.167 156.893 190.188C158.205 189.188 159.924 188.688 162.049 188.688C162.59 188.688 163.07 188.708 163.486 188.75C163.924 188.771 164.299 188.792 164.611 188.812V195.812C164.32 195.771 163.82 195.719 163.111 195.656C162.403 195.594 161.663 195.562 160.893 195.562C159.018 195.562 157.434 196.208 156.143 197.5C154.872 198.792 154.236 200.729 154.236 203.312V222H146.361ZM176.691 222.531C173.4 222.531 170.67 221.708 168.504 220.062C166.358 218.396 165.285 215.917 165.285 212.625C165.285 210.125 165.889 208.198 167.098 206.844C168.327 205.469 169.92 204.469 171.879 203.844C173.858 203.219 175.983 202.792 178.254 202.562C181.316 202.208 183.452 201.896 184.66 201.625C185.868 201.354 186.473 200.656 186.473 199.531V199.281C186.473 197.865 185.931 196.708 184.848 195.812C183.785 194.917 182.316 194.469 180.441 194.469C178.525 194.469 176.962 194.917 175.754 195.812C174.566 196.708 173.92 197.854 173.816 199.25H166.223C166.41 195.979 167.775 193.344 170.316 191.344C172.858 189.344 176.285 188.344 180.598 188.344C184.889 188.344 188.243 189.344 190.66 191.344C193.077 193.344 194.285 196.062 194.285 199.5V222H186.535V217.344H186.41C185.618 218.802 184.473 220.031 182.973 221.031C181.473 222.031 179.379 222.531 176.691 222.531ZM178.629 216.688C181.212 216.688 183.17 216.021 184.504 214.688C185.837 213.333 186.504 211.698 186.504 209.781V206.219C186.025 206.531 185.098 206.823 183.723 207.094C182.348 207.344 180.848 207.594 179.223 207.844C177.535 208.094 176.066 208.573 174.816 209.281C173.587 209.969 172.973 211.062 172.973 212.562C172.973 213.854 173.483 214.865 174.504 215.594C175.525 216.323 176.9 216.688 178.629 216.688ZM199.334 222V189H206.959V194.719C207.959 192.594 209.344 191 211.115 189.938C212.886 188.875 214.813 188.344 216.896 188.344C219.125 188.344 221.094 188.917 222.802 190.062C224.511 191.188 225.709 192.698 226.396 194.594C227.271 192.698 228.636 191.188 230.49 190.062C232.344 188.917 234.48 188.344 236.896 188.344C240.021 188.344 242.646 189.354 244.771 191.375C246.896 193.396 247.959 196.344 247.959 200.219V222H240.052V201.344C240.052 199.156 239.448 197.562 238.24 196.562C237.052 195.542 235.615 195.031 233.927 195.031C231.927 195.031 230.344 195.656 229.177 196.906C228.032 198.156 227.459 199.771 227.459 201.75V222H219.802V200.969C219.802 199.177 219.24 197.74 218.115 196.656C216.99 195.573 215.552 195.031 213.802 195.031C212.032 195.031 210.49 195.656 209.177 196.906C207.865 198.135 207.209 199.938 207.209 202.312V222H199.334Z" fill="url(#paint0_linear_6411_10320)" style="mix-blend-mode:overlay"/>
<defs>
<linearGradient id="paint0_linear_6411_10320" x1="133" y1="-4" x2="133" y2="228" gradientUnits="userSpaceOnUse">
<stop stop-color="white"/>
<stop offset="1" stop-color="white" stop-opacity="0.3"/>
</linearGradient>
</defs>
</svg>
