<svg viewBox="0 0 1101 260" fill="none" xmlns="http://www.w3.org/2000/svg">
<path d="M118.453 105.641C109.065 105.641 100.77 103.476 93.5699 99.1465C86.3694 94.8171 80.7184 88.7103 76.6168 80.8262C72.5152 72.9421 70.4644 63.7135 70.4644 53.1406C70.4644 42.4766 72.5152 33.2025 76.6168 25.3184C80.7184 17.4342 86.3694 11.3275 93.5699 6.99805C100.77 2.66862 109.065 0.503906 118.453 0.503906C126.109 0.503906 133.036 2.00781 139.234 5.01562C145.432 8.02344 150.536 12.2617 154.546 17.7305C158.602 23.1992 161.2 29.6478 162.339 37.0762H143.951C142.584 30.6048 139.644 25.5918 135.132 22.0371C130.621 18.4824 125.106 16.7051 118.589 16.7051C112.392 16.7051 107.037 18.209 102.525 21.2168C98.0588 24.2246 94.6181 28.4629 92.2027 33.9316C89.8329 39.4004 88.648 45.8034 88.648 53.1406C88.648 60.4323 89.8329 66.8125 92.2027 72.2812C94.6181 77.7044 98.0588 81.9199 102.525 84.9277C106.991 87.9355 112.346 89.4395 118.589 89.4395C125.061 89.4395 130.552 87.6849 135.064 84.1758C139.576 80.6667 142.561 75.6764 144.019 69.2051H162.339C161.2 76.6335 158.602 83.082 154.546 88.5508C150.536 93.974 145.432 98.1895 139.234 101.197C133.036 104.16 126.109 105.641 118.453 105.641ZM202.3 105.641C195.099 105.641 188.856 104.023 183.569 100.787C178.283 97.5514 174.204 93.1081 171.333 87.457C168.507 81.7604 167.095 75.2663 167.095 67.9746C167.095 60.6374 168.553 54.1432 171.47 48.4922C174.432 42.7956 178.511 38.3294 183.706 35.0938C188.901 31.8125 194.871 30.1719 201.616 30.1719C208.543 30.1719 214.604 31.7669 219.8 34.957C224.995 38.1471 229.028 42.5677 231.899 48.2188C234.77 53.8242 236.206 60.3184 236.206 67.7012V72.418H183.979C184.207 78.2969 185.939 83.0365 189.175 86.6367C192.41 90.237 196.922 92.0371 202.71 92.0371C207.039 92.0371 210.617 91.1029 213.442 89.2344C216.268 87.3203 218.182 84.8138 219.184 81.7148H235.317C234.406 86.4089 232.401 90.556 229.302 94.1562C226.248 97.7565 222.397 100.582 217.749 102.633C213.1 104.638 207.951 105.641 202.3 105.641ZM184.116 60.5234H219.663C219.116 55.3737 217.248 51.3177 214.057 48.3555C210.913 45.3477 206.857 43.8438 201.889 43.8438C196.876 43.8438 192.798 45.3477 189.653 48.3555C186.554 51.3177 184.708 55.3737 184.116 60.5234ZM281.84 31.8125V45.6895H267.143V83.2871C267.143 85.8848 267.667 87.6849 268.715 88.6875C269.763 89.6445 271.677 90.123 274.457 90.123H281.84V104H271.449C264.112 104 258.666 102.519 255.111 99.5566C251.602 96.5944 249.848 92.0143 249.848 85.8164V45.6895H237.27V31.8125H249.848V12.125H267.143V31.8125H281.84ZM314.212 105.436C306.647 105.436 300.472 102.997 295.687 98.1211C290.902 93.2448 288.509 86.181 288.509 76.9297V31.8125H305.736V74.1953C305.736 79.4818 307.012 83.4922 309.564 86.2266C312.116 88.9609 315.693 90.3281 320.296 90.3281C324.853 90.3281 328.613 88.9154 331.575 86.0898C334.583 83.2643 336.087 78.7754 336.087 72.623V31.8125H353.382V104H336.429V92.9258C331.37 101.266 323.965 105.436 314.212 105.436ZM392.864 105.709C384.068 105.709 376.708 103.658 370.784 99.5566C364.905 95.4095 361.692 89.4622 361.145 81.7148H378.166C378.531 85.224 379.944 87.9583 382.405 89.918C384.866 91.832 388.261 92.7891 392.59 92.7891C396.737 92.7891 399.996 91.9688 402.366 90.3281C404.781 88.6875 405.989 86.5911 405.989 84.0391C405.989 81.8516 405.1 80.097 403.323 78.7754C401.545 77.4538 399.153 76.474 396.145 75.8359L383.84 73.3066C369.804 70.39 362.786 63.4401 362.786 52.457C362.786 45.8034 365.429 40.4486 370.715 36.3926C376.002 32.291 383.043 30.2402 391.838 30.2402C400.588 30.2402 407.698 32.4049 413.166 36.7344C418.681 41.0182 421.529 46.8743 421.711 54.3027H405.51C405.419 51.0671 404.166 48.401 401.75 46.3047C399.335 44.2083 396.168 43.1602 392.248 43.1602C388.466 43.1602 385.481 44.0033 383.293 45.6895C381.106 47.3757 380.012 49.4492 380.012 51.9102C380.012 54.0521 380.855 55.8066 382.541 57.1738C384.228 58.4954 386.575 59.498 389.582 60.1816L402.571 62.8477C409.726 64.3516 414.989 66.7214 418.362 69.957C421.78 73.1927 423.489 77.4538 423.489 82.7402C423.489 87.4342 422.167 91.513 419.524 94.9766C416.926 98.3945 413.326 101.038 408.723 102.906C404.12 104.775 398.834 105.709 392.864 105.709ZM451.798 104L488.165 2.14453H510.86L547.091 104H527.198L519.063 79.6641H479.552L471.212 104H451.798ZM484.61 64.8301H514.141L509.356 50.4746C507.852 45.7806 506.303 40.8815 504.708 35.7773C503.158 30.6732 501.427 24.9082 499.512 18.4824C497.598 24.9082 495.844 30.6732 494.249 35.7773C492.654 40.8815 491.081 45.7806 489.532 50.4746L484.61 64.8301ZM615.283 132.574H598.057V93.1309H597.852C595.573 97.2324 592.588 100.309 588.896 102.359C585.205 104.41 581.012 105.436 576.318 105.436C570.029 105.436 564.538 103.863 559.844 100.719C555.15 97.5742 551.504 93.1992 548.906 87.5938C546.354 81.9427 545.078 75.3574 545.078 67.8379C545.078 60.4551 546.377 53.9609 548.975 48.3555C551.572 42.7044 555.218 38.3066 559.912 35.1621C564.606 31.972 570.029 30.377 576.182 30.377C580.876 30.377 585.137 31.334 588.965 33.248C592.793 35.1621 595.824 38.0332 598.057 41.8613H598.33V31.8125H615.283V132.574ZM580.352 91.0117C586.003 91.0117 590.514 88.9154 593.887 84.7227C597.305 80.4844 599.014 74.8561 599.014 67.8379C599.014 60.8197 597.305 55.2142 593.887 51.0215C590.514 46.7832 586.003 44.6641 580.352 44.6641C575.02 44.6641 570.713 46.6693 567.432 50.6797C564.15 54.6901 562.51 60.4095 562.51 67.8379C562.51 75.3118 564.15 81.054 567.432 85.0645C570.713 89.0293 575.02 91.0117 580.352 91.0117ZM652.099 105.436C644.534 105.436 638.359 102.997 633.573 98.1211C628.788 93.2448 626.396 86.181 626.396 76.9297V31.8125H643.622V74.1953C643.622 79.4818 644.898 83.4922 647.45 86.2266C650.003 88.9609 653.58 90.3281 658.183 90.3281C662.74 90.3281 666.5 88.9154 669.462 86.0898C672.47 83.2643 673.974 78.7754 673.974 72.623V31.8125H691.269V104H674.316V92.9258C669.257 101.266 661.851 105.436 652.099 105.436ZM724.461 105.162C717.261 105.162 711.291 103.362 706.551 99.7617C701.857 96.1159 699.51 90.6927 699.51 83.4922C699.51 78.0234 700.832 73.8079 703.475 70.8457C706.164 67.8379 709.65 65.6504 713.934 64.2832C718.263 62.916 722.912 61.9818 727.879 61.4805C734.578 60.7057 739.25 60.0221 741.893 59.4297C744.536 58.8372 745.858 57.3105 745.858 54.8496V54.3027C745.858 51.2038 744.673 48.6745 742.303 46.7148C739.979 44.7552 736.766 43.7754 732.664 43.7754C728.472 43.7754 725.054 44.7552 722.411 46.7148C719.813 48.6745 718.4 51.181 718.172 54.2344H701.561C701.971 47.0794 704.956 41.3145 710.516 36.9395C716.076 32.5645 723.573 30.377 733.006 30.377C742.394 30.377 749.731 32.5645 755.018 36.9395C760.304 41.3145 762.948 47.2617 762.948 54.7812V104H745.995V93.8145H745.721C743.989 97.0046 741.483 99.6934 738.202 101.881C734.92 104.068 730.34 105.162 724.461 105.162ZM728.7 92.3789C734.351 92.3789 738.634 90.9206 741.551 88.0039C744.468 85.0417 745.926 81.4642 745.926 77.2715V69.4785C744.878 70.1621 742.85 70.8001 739.842 71.3926C736.834 71.9395 733.553 72.4863 729.998 73.0332C726.307 73.5801 723.094 74.6283 720.36 76.1777C717.671 77.6816 716.327 80.0742 716.327 83.3555C716.327 86.181 717.443 88.3913 719.676 89.9863C721.909 91.5814 724.917 92.3789 728.7 92.3789ZM773.992 104V31.8125H790.603V43.7754H790.808C792.13 39.6738 794.203 36.5521 797.029 34.4102C799.9 32.2227 803.66 31.1289 808.308 31.1289C809.493 31.1289 810.541 31.1745 811.453 31.2656C812.41 31.3112 813.23 31.3568 813.914 31.4023V46.7148C813.276 46.6237 812.182 46.5098 810.632 46.373C809.083 46.2363 807.465 46.168 805.779 46.168C801.677 46.168 798.214 47.5807 795.388 50.4062C792.608 53.2318 791.218 57.4701 791.218 63.1211V104H773.992ZM820.241 104V31.8125H837.468V104H820.241ZM828.854 21.0801C825.892 21.0801 823.431 20.1458 821.471 18.2773C819.512 16.3633 818.532 14.0163 818.532 11.2363C818.532 8.45638 819.512 6.13216 821.471 4.26367C823.431 2.39518 825.892 1.46094 828.854 1.46094C831.771 1.46094 834.209 2.39518 836.169 4.26367C838.128 6.13216 839.108 8.45638 839.108 11.2363C839.108 14.0163 838.128 16.3633 836.169 18.2773C834.209 20.1458 831.771 21.0801 828.854 21.0801ZM874.283 105.436C866.718 105.436 860.543 102.997 855.758 98.1211C850.973 93.2448 848.58 86.181 848.58 76.9297V31.8125H865.807V74.1953C865.807 79.4818 867.083 83.4922 869.635 86.2266C872.187 88.9609 875.764 90.3281 880.367 90.3281C884.924 90.3281 888.684 88.9154 891.646 86.0898C894.654 83.2643 896.158 78.7754 896.158 72.623V31.8125H913.453V104H896.5V92.9258C891.441 101.266 884.036 105.436 874.283 105.436ZM924.634 104V31.8125H941.314V44.3223C943.501 39.6738 946.532 36.1875 950.406 33.8633C954.279 31.5391 958.495 30.377 963.052 30.377C967.928 30.377 972.235 31.6302 975.972 34.1367C979.709 36.5977 982.329 39.9017 983.833 44.0488C985.747 39.9017 988.732 36.5977 992.788 34.1367C996.844 31.6302 1001.52 30.377 1006.8 30.377C1013.64 30.377 1019.38 32.5872 1024.03 37.0078C1028.68 41.4284 1031 47.877 1031 56.3535V104H1013.71V58.8145C1013.71 54.0293 1012.38 50.543 1009.74 48.3555C1007.14 46.1224 1004 45.0059 1000.31 45.0059C995.933 45.0059 992.469 46.373 989.917 49.1074C987.411 51.8418 986.157 55.3737 986.157 59.7031V104H969.409V57.9941C969.409 54.0749 968.179 50.9303 965.718 48.5605C963.257 46.1908 960.113 45.0059 956.284 45.0059C952.411 45.0059 949.038 46.373 946.167 49.1074C943.296 51.7962 941.861 55.7383 941.861 60.9336V104H924.634ZM18.4047 128.145V230H0.357788V128.145H18.4047ZM47.564 189.189V230H30.3375V157.812H47.2906V168.887C52.3036 160.547 59.6864 156.377 69.439 156.377C77.0041 156.377 83.1793 158.815 87.9644 163.691C92.7952 168.568 95.2105 175.632 95.2105 184.883V230H77.9156V187.617C77.9156 182.331 76.6396 178.32 74.0875 175.586C71.5354 172.852 67.9579 171.484 63.3551 171.484C58.8433 171.484 55.0836 172.897 52.0758 175.723C49.0679 178.548 47.564 183.037 47.564 189.189ZM138.315 231.641C131.297 231.641 125.122 230.046 119.79 226.855C114.503 223.665 110.379 219.245 107.417 213.594C104.5 207.943 103.042 201.403 103.042 193.975C103.042 186.546 104.5 180.007 107.417 174.355C110.379 168.659 114.503 164.215 119.79 161.025C125.122 157.79 131.297 156.172 138.315 156.172C144.376 156.172 149.777 157.357 154.516 159.727C159.256 162.051 163.061 165.286 165.932 169.434C168.849 173.535 170.558 178.275 171.059 183.652H154.175C153.537 179.779 151.873 176.634 149.184 174.219C146.541 171.758 142.986 170.527 138.52 170.527C132.869 170.527 128.449 172.646 125.259 176.885C122.068 181.123 120.473 186.82 120.473 193.975C120.473 201.084 122.068 206.758 125.259 210.996C128.449 215.189 132.869 217.285 138.52 217.285C143.032 217.285 146.541 216.1 149.048 213.73C151.554 211.315 153.218 208.102 154.038 204.092H171.059C170.649 209.378 168.986 214.095 166.069 218.242C163.198 222.389 159.37 225.671 154.585 228.086C149.845 230.456 144.422 231.641 138.315 231.641ZM204.184 231.436C196.618 231.436 190.443 228.997 185.658 224.121C180.873 219.245 178.48 212.181 178.48 202.93V157.812H195.707V200.195C195.707 205.482 196.983 209.492 199.535 212.227C202.087 214.961 205.665 216.328 210.268 216.328C214.825 216.328 218.585 214.915 221.547 212.09C224.555 209.264 226.059 204.775 226.059 198.623V157.812H243.353V230H226.4V218.926C221.342 227.266 213.936 231.436 204.184 231.436ZM293.499 231.436C288.76 231.436 284.476 230.41 280.648 228.359C276.865 226.309 273.857 223.187 271.624 218.994H271.487V230H254.534V128.145H271.761V168.066H271.898C274.222 164.102 277.252 161.162 280.989 159.248C284.726 157.334 288.919 156.377 293.568 156.377C299.765 156.377 305.189 157.972 309.837 161.162C314.531 164.307 318.177 168.704 320.775 174.355C323.418 179.961 324.739 186.455 324.739 193.838C324.739 201.357 323.441 207.943 320.843 213.594C318.291 219.199 314.668 223.574 309.974 226.719C305.28 229.863 299.788 231.436 293.499 231.436ZM289.466 217.012C294.798 217.012 299.105 215.029 302.386 211.064C305.667 207.054 307.308 201.312 307.308 193.838C307.308 186.41 305.667 180.69 302.386 176.68C299.105 172.669 294.798 170.664 289.466 170.664C283.815 170.664 279.28 172.783 275.862 177.021C272.49 181.214 270.804 186.82 270.804 193.838C270.804 200.856 272.49 206.484 275.862 210.723C279.28 214.915 283.815 217.012 289.466 217.012ZM355.471 231.162C348.271 231.162 342.3 229.362 337.561 225.762C332.867 222.116 330.52 216.693 330.52 209.492C330.52 204.023 331.842 199.808 334.485 196.846C337.174 193.838 340.66 191.65 344.944 190.283C349.273 188.916 353.922 187.982 358.889 187.48C365.588 186.706 370.259 186.022 372.903 185.43C375.546 184.837 376.868 183.311 376.868 180.85V180.303C376.868 177.204 375.683 174.674 373.313 172.715C370.989 170.755 367.776 169.775 363.674 169.775C359.481 169.775 356.064 170.755 353.42 172.715C350.823 174.674 349.41 177.181 349.182 180.234H332.571C332.981 173.079 335.966 167.314 341.526 162.939C347.086 158.564 354.582 156.377 364.016 156.377C373.404 156.377 380.741 158.564 386.028 162.939C391.314 167.314 393.957 173.262 393.957 180.781V230H377.004V219.814H376.731C374.999 223.005 372.493 225.693 369.211 227.881C365.93 230.068 361.35 231.162 355.471 231.162ZM359.709 218.379C365.36 218.379 369.644 216.921 372.561 214.004C375.478 211.042 376.936 207.464 376.936 203.271V195.479C375.888 196.162 373.86 196.8 370.852 197.393C367.844 197.939 364.563 198.486 361.008 199.033C357.317 199.58 354.104 200.628 351.37 202.178C348.681 203.682 347.336 206.074 347.336 209.355C347.336 212.181 348.453 214.391 350.686 215.986C352.919 217.581 355.927 218.379 359.709 218.379ZM443.078 157.812V171.689H428.38V209.287C428.38 211.885 428.905 213.685 429.953 214.688C431.001 215.645 432.915 216.123 435.695 216.123H443.078V230H432.687C425.35 230 419.904 228.519 416.349 225.557C412.84 222.594 411.086 218.014 411.086 211.816V171.689H398.507V157.812H411.086V138.125H428.38V157.812H443.078ZM480.919 231.641C473.809 231.641 467.589 230.068 462.257 226.924C456.925 223.734 452.755 219.313 449.747 213.662C446.785 208.011 445.303 201.449 445.303 193.975C445.303 186.501 446.785 179.938 449.747 174.287C452.755 168.59 456.925 164.147 462.257 160.957C467.589 157.767 473.809 156.172 480.919 156.172C487.983 156.172 494.18 157.767 499.512 160.957C504.89 164.147 509.06 168.59 512.022 174.287C515.03 179.938 516.534 186.501 516.534 193.975C516.534 201.449 515.03 208.011 512.022 213.662C509.06 219.313 504.89 223.734 499.512 226.924C494.18 230.068 487.983 231.641 480.919 231.641ZM480.919 217.217C486.433 217.217 490.831 215.143 494.112 210.996C497.393 206.849 499.034 201.175 499.034 193.975C499.034 186.774 497.393 181.077 494.112 176.885C490.831 172.692 486.433 170.596 480.919 170.596C475.359 170.596 470.938 172.692 467.657 176.885C464.376 181.032 462.735 186.729 462.735 193.975C462.735 201.175 464.376 206.849 467.657 210.996C470.938 215.143 475.359 217.217 480.919 217.217ZM524.297 230V157.812H540.908V169.775H541.113C542.435 165.674 544.508 162.552 547.334 160.41C550.205 158.223 553.965 157.129 558.613 157.129C559.798 157.129 560.846 157.174 561.758 157.266C562.715 157.311 563.535 157.357 564.219 157.402V172.715C563.581 172.624 562.487 172.51 560.938 172.373C559.388 172.236 557.77 172.168 556.084 172.168C551.982 172.168 548.519 173.581 545.693 176.406C542.913 179.232 541.523 183.47 541.523 189.121V230H524.297ZM598.338 230V128.145H637.235C644.709 128.145 651.157 129.466 656.58 132.109C662.049 134.753 666.242 138.512 669.159 143.389C672.121 148.265 673.602 154.03 673.602 160.684C673.602 167.383 672.098 173.171 669.09 178.047C666.082 182.923 661.821 186.706 656.307 189.395C650.838 192.038 644.367 193.359 636.893 193.359H616.385V230H598.338ZM616.385 177.91H636.209C642.271 177.91 647.056 176.383 650.565 173.33C654.074 170.231 655.828 166.016 655.828 160.684C655.828 155.397 654.074 151.227 650.565 148.174C647.056 145.12 642.271 143.594 636.209 143.594H616.385V177.91ZM679.861 230V157.812H696.472V169.775H696.677C697.999 165.674 700.072 162.552 702.898 160.41C705.769 158.223 709.529 157.129 714.177 157.129C715.362 157.129 716.41 157.174 717.322 157.266C718.279 157.311 719.099 157.357 719.783 157.402V172.715C719.145 172.624 718.051 172.51 716.502 172.373C714.952 172.236 713.334 172.168 711.648 172.168C707.546 172.168 704.083 173.581 701.257 176.406C698.477 179.232 697.087 183.47 697.087 189.121V230H679.861ZM756.872 231.641C749.762 231.641 743.542 230.068 738.21 226.924C732.878 223.734 728.708 219.313 725.7 213.662C722.738 208.011 721.257 201.449 721.257 193.975C721.257 186.501 722.738 179.938 725.7 174.287C728.708 168.59 732.878 164.147 738.21 160.957C743.542 157.767 749.762 156.172 756.872 156.172C763.936 156.172 770.134 157.767 775.466 160.957C780.843 164.147 785.013 168.59 787.975 174.287C790.983 179.938 792.487 186.501 792.487 193.975C792.487 201.449 790.983 208.011 787.975 213.662C785.013 219.313 780.843 223.734 775.466 226.924C770.134 230.068 763.936 231.641 756.872 231.641ZM756.872 217.217C762.386 217.217 766.784 215.143 770.065 210.996C773.346 206.849 774.987 201.175 774.987 193.975C774.987 186.774 773.346 181.077 770.065 176.885C766.784 172.692 762.386 170.596 756.872 170.596C751.312 170.596 746.891 172.692 743.61 176.885C740.329 181.032 738.688 186.729 738.688 193.975C738.688 201.175 740.329 206.849 743.61 210.996C746.891 215.143 751.312 217.217 756.872 217.217ZM832.994 259.531C823.469 259.531 815.904 257.48 810.299 253.379C804.693 249.277 801.412 243.717 800.455 236.699H817.34C818.16 239.798 819.96 242.145 822.74 243.74C825.52 245.381 828.938 246.201 832.994 246.201C838.372 246.201 842.542 244.743 845.504 241.826C848.512 238.91 850.016 234.694 850.016 229.18V218.174H849.947C847.623 222.412 844.592 225.534 840.855 227.539C837.118 229.499 832.88 230.479 828.141 230.479C821.852 230.479 816.36 228.906 811.666 225.762C806.972 222.617 803.326 218.288 800.729 212.773C798.176 207.214 796.9 200.811 796.9 193.564C796.9 186.273 798.199 179.824 800.797 174.219C803.395 168.613 807.04 164.238 811.734 161.094C816.428 157.949 821.852 156.377 828.004 156.377C832.698 156.377 836.936 157.38 840.719 159.385C844.547 161.344 847.646 164.398 850.016 168.545H850.084V157.812H867.105V228.154C867.105 235.583 865.624 241.598 862.662 246.201C859.7 250.85 855.644 254.222 850.494 256.318C845.344 258.46 839.511 259.531 832.994 259.531ZM832.174 216.26C837.825 216.26 842.337 214.186 845.709 210.039C849.127 205.846 850.836 200.286 850.836 193.359C850.836 186.432 849.127 180.895 845.709 176.748C842.337 172.555 837.825 170.459 832.174 170.459C826.842 170.459 822.535 172.441 819.254 176.406C815.973 180.371 814.332 186.022 814.332 193.359C814.332 200.742 815.973 206.416 819.254 210.381C822.535 214.3 826.842 216.26 832.174 216.26ZM878.218 230V157.812H894.829V169.775H895.034C896.356 165.674 898.43 162.552 901.255 160.41C904.126 158.223 907.886 157.129 912.534 157.129C913.719 157.129 914.767 157.174 915.679 157.266C916.636 157.311 917.456 157.357 918.14 157.402V172.715C917.502 172.624 916.408 172.51 914.859 172.373C913.309 172.236 911.691 172.168 910.005 172.168C905.904 172.168 902.44 173.581 899.614 176.406C896.834 179.232 895.445 183.47 895.445 189.121V230H878.218ZM944.565 231.162C937.364 231.162 931.394 229.362 926.655 225.762C921.961 222.116 919.614 216.693 919.614 209.492C919.614 204.023 920.935 199.808 923.578 196.846C926.267 193.838 929.754 191.65 934.037 190.283C938.367 188.916 943.015 187.982 947.983 187.48C954.682 186.706 959.353 186.022 961.996 185.43C964.64 184.837 965.961 183.311 965.961 180.85V180.303C965.961 177.204 964.776 174.674 962.407 172.715C960.082 170.755 956.87 169.775 952.768 169.775C948.575 169.775 945.157 170.755 942.514 172.715C939.916 174.674 938.504 177.181 938.276 180.234H921.664C922.075 173.079 925.06 167.314 930.62 162.939C936.179 158.564 943.676 156.377 953.11 156.377C962.498 156.377 969.835 158.564 975.121 162.939C980.408 167.314 983.051 173.262 983.051 180.781V230H966.098V219.814H965.825C964.093 223.005 961.586 225.693 958.305 227.881C955.024 230.068 950.444 231.162 944.565 231.162ZM948.803 218.379C954.454 218.379 958.738 216.921 961.655 214.004C964.571 211.042 966.03 207.464 966.03 203.271V195.479C964.981 196.162 962.953 196.8 959.946 197.393C956.938 197.939 953.657 198.486 950.102 199.033C946.411 199.58 943.198 200.628 940.463 202.178C937.774 203.682 936.43 206.074 936.43 209.355C936.43 212.181 937.547 214.391 939.78 215.986C942.013 217.581 945.021 218.379 948.803 218.379ZM994.095 230V157.812H1010.77V170.322C1012.96 165.674 1015.99 162.188 1019.87 159.863C1023.74 157.539 1027.96 156.377 1032.51 156.377C1037.39 156.377 1041.7 157.63 1045.43 160.137C1049.17 162.598 1051.79 165.902 1053.29 170.049C1055.21 165.902 1058.19 162.598 1062.25 160.137C1066.31 157.63 1070.98 156.377 1076.26 156.377C1083.1 156.377 1088.84 158.587 1093.49 163.008C1098.14 167.428 1100.46 173.877 1100.46 182.354V230H1083.17V184.814C1083.17 180.029 1081.85 176.543 1079.2 174.355C1076.6 172.122 1073.46 171.006 1069.77 171.006C1065.39 171.006 1061.93 172.373 1059.38 175.107C1056.87 177.842 1055.62 181.374 1055.62 185.703V230H1038.87V183.994C1038.87 180.075 1037.64 176.93 1035.18 174.561C1032.72 172.191 1029.57 171.006 1025.75 171.006C1021.87 171.006 1018.5 172.373 1015.63 175.107C1012.76 177.796 1011.32 181.738 1011.32 186.934V230H994.095Z" fill="url(#paint0_linear_6674_28147)" style="mix-blend-mode:overlay"/>
<defs>
<linearGradient id="paint0_linear_6674_28147" x1="550" y1="-10" x2="550" y2="242" gradientUnits="userSpaceOnUse">
<stop stop-color="white"/>
<stop offset="1" stop-color="white" stop-opacity="0.3"/>
</linearGradient>
</defs>
</svg>
